<?xml version="1.0" standalone="no"?>
<!DOCTYPE svg PUBLIC "-//W3C//DTD SVG 1.1//EN" "http://www.w3.org/Graphics/SVG/1.1/DTD/svg11.dtd" >
<svg xmlns="http://www.w3.org/2000/svg">
<metadata>Generated by IcoMoon</metadata>
<defs>
<font id="icomoon" horiz-adv-x="1024">
<font-face units-per-em="1024" ascent="819.2" descent="-204.8" />
<missing-glyph horiz-adv-x="1024" />
<glyph unicode="&#x20;" d="" />
<glyph unicode="&#xe600;" glyph-name="uniE600" d="M0 704h1024v-128h-1024v128zM0 384h1024v-128h-1024v128zM0 64h1024v-128h-1024v128z" />
<glyph unicode="&#xe601;" glyph-name="uniE601" d="M512 707.2c-272 0-492.8-163.2-492.8-364.8s220.8-364.8 492.8-364.8c80 0 156.8 16 224 38.4l195.2-86.4v217.6c48 54.4 73.6 121.6 73.6 192 0 204.8-220.8 368-492.8 368zM892.8 182.4l-12.8-12.8v-156.8l-124.8 51.2-19.2 9.6-19.2-6.4c-64-25.6-134.4-35.2-204.8-35.2-243.2 0-441.6 140.8-441.6 313.6s198.4 313.6 441.6 313.6c243.2 0 441.6-140.8 441.6-313.6 0-57.6-22.4-112-60.8-163.2zM435.2 259.2c-9.6-9.6-22.4-12.8-35.2-12.8-19.2 0-35.2 6.4-44.8 22.4-12.8 12.8-19.2 38.4-19.2 70.4s6.4 54.4 19.2 67.2c12.8 12.8 28.8 19.2 48 19.2 12.8 0 25.6-3.2 35.2-12.8 9.6-6.4 16-19.2 19.2-32l51.2 12.8c-6.4 19.2-16 35.2-25.6 48-19.2 19.2-44.8 28.8-76.8 28.8-35.2 0-64-12.8-86.4-35.2s-32-57.6-32-99.2c0-41.6 9.6-73.6 32-96s51.2-35.2 83.2-35.2c28.8 0 51.2 6.4 67.2 19.2 19.2 12.8 32 35.2 38.4 64l-51.2 16c-6.4-22.4-12.8-35.2-22.4-44.8zM739.2 422.4v41.6h-192v-44.8h121.6l-134.4-166.4v-48h208v44.8h-147.2z" />
<glyph unicode="&#xe602;" glyph-name="uniE602" d="M512 707.2c-272 0-492.8-163.2-492.8-364.8s220.8-364.8 492.8-364.8c80 0 156.8 16 224 38.4l195.2-86.4v217.6c48 54.4 73.6 121.6 73.6 192 0 204.8-220.8 368-492.8 368zM467.2 220.8c-19.2-12.8-41.6-19.2-67.2-19.2-35.2 0-64 12.8-83.2 35.2-22.4 22.4-32 54.4-32 96s9.6 76.8 32 99.2c22.4 22.4 51.2 35.2 86.4 35.2 32 0 57.6-9.6 76.8-28.8 12.8-9.6 19.2-25.6 25.6-48l-51.2-12.8c-3.2 12.8-9.6 25.6-19.2 32s-22.4 12.8-35.2 12.8c-19.2 0-35.2-6.4-48-19.2s-19.2-35.2-19.2-67.2c0-32 6.4-57.6 19.2-70.4s25.6-22.4 44.8-22.4c12.8 0 25.6 3.2 35.2 12.8s16 22.4 22.4 41.6l51.2-16c-6.4-25.6-19.2-44.8-38.4-60.8zM742.4 204.8h-211.2v48l134.4 166.4h-121.6v44.8h188.8v-41.6l-140.8-176h147.2v-41.6z" />
<glyph unicode="&#xe603;" glyph-name="uniE603" d="M504.32-192c-278.112 0-504.32 231.328-504.32 515.648 0 280.352 228.064 508.352 508.416 508.352 267.52 0 407.488-207.488 407.488-412.48 0-41.792-10.080-149.632-103.456-249.12-110.624-117.792-296.256-131.68-297.984-131.68-28-1.376-53.792 10.4-71.040 30.528-17.824 20.736-24.8 48.928-19.584 79.424 0.896 5.856 49.632 318.72 49.632 318.72l67.424-10.496c-18.432-118.56-49.472-317.792-49.824-319.68-1.696-10.048-0.256-18.432 4.096-23.488 3.84-4.512 11.424-7.104 18.72-6.752-0.224 0 159.52 15.136 248.768 110.112 76.672 81.76 84.928 168.736 84.928 202.4 0 165.824-106.112 344.192-339.2 344.192-242.688 0-440.16-197.376-440.16-440.064 0-246.656 195.616-447.392 436.064-447.392 196.064 0 292.032 56.864 383.328 148.672l48.416-48.128c-100.768-101.344-212.768-168.768-431.712-168.768z" />
<glyph unicode="&#xe604;" glyph-name="uniE604" d="M1024-22.4l-406.4 249.6c22.4 44.8 35.2 96 35.2 150.4 3.2 182.4-144 326.4-326.4 326.4-179.2 0-326.4-144-326.4-326.4 0-179.2 147.2-326.4 326.4-326.4 108.8 0 204.8 54.4 262.4 134.4l409.6-249.6 25.6 41.6zM326.4 102.4c-153.6 0-275.2 124.8-275.2 275.2s124.8 275.2 275.2 275.2 275.2-124.8 275.2-275.2c0-150.4-121.6-275.2-275.2-275.2z" />
<glyph unicode="&#xe605;" glyph-name="uniE605" d="M1024-22.4l-406.4 249.6c22.4 44.8 35.2 96 35.2 150.4 3.2 182.4-144 326.4-326.4 326.4-179.2 0-326.4-144-326.4-326.4s147.2-326.4 326.4-326.4c108.8 0 204.8 54.4 262.4 134.4l409.6-249.6 25.6 41.6z" />
<glyph unicode="&#xe606;" glyph-name="uniE606" d="M0 832v-1024h1024v1024h-1024zM886.4 217.6h-272v-272h-204.8v272h-272v204.8h272v272h204.8v-272h272v-204.8z" />
<glyph unicode="&#xe607;" glyph-name="uniE607" d="M512 832l-512-547.2h124.8v-476.8h752v476.8h147.2z" />
<glyph unicode="&#xe608;" glyph-name="uniE608" d="M752 560v-476.8h-480v476.8h480zM1024 832h-1024v-1024h1024v1024z" />
<glyph unicode="&#xe609;" glyph-name="uniE609" d="M512 560c131.2 0 240-108.8 240-240s-105.6-240-240-240-240 108.8-240 240 108.8 240 240 240zM512 832c-281.6 0-512-230.4-512-512s230.4-512 512-512c281.6 0 512 230.4 512 512s-230.4 512-512 512v0z" />
<glyph unicode="&#xe60a;" glyph-name="uniE60A" d="M1024 320c0-282.77-229.23-512-512-512s-512 229.23-512 512c0 282.77 229.23 512 512 512s512-229.23 512-512z" />
<glyph unicode="&#xe60b;" glyph-name="uniE60B" d="M512 832l-512-1024h1024z" />
<glyph unicode="&#xe60c;" glyph-name="uniE60C" d="M0 832h1161.6v-1024h-1161.6v1024z" />
<glyph unicode="&#xe60d;" glyph-name="uniE60D" d="M688-192l-512 512 512 512 160-163.2-348.8-348.8 348.8-348.8z" />
<glyph unicode="&#xe60e;" glyph-name="uniE60E" d="M336 832l512-512-512-512-160 163.2 348.8 348.8-348.8 348.8z" />
<glyph unicode="&#xe60f;" glyph-name="uniE60F" d="M0 144l512 512 512-512-163.2-160-348.8 348.8-348.8-348.8z" />
<glyph unicode="&#xe610;" glyph-name="uniE610" d="M1024 496l-512-512-512 512 163.2 160 348.8-348.8 348.8 348.8z" />
<glyph unicode="&#xe611;" glyph-name="uniE611" d="M1024 333.92h-478.368l338.304 338.272-19.712 19.712-338.336-338.336v478.432h-27.872v-478.368l-338.208 338.24-19.68-19.712 338.24-338.24h-478.368v-27.872h478.368l-338.24-338.24 19.68-19.712 338.208 338.208v-478.304h27.872v478.368l338.336-338.304 19.712 19.68-338.304 338.304h478.368z" />
<glyph unicode="&#xe612;" glyph-name="uniE612" d="M1024-184.928h-1024v1009.856h28.256v-981.6h967.488v981.6h28.256zM829.76 824.928h28.256v-248.96h-28.256v248.96zM663.808 824.928h28.256v-248.96h-28.256v248.96zM497.856 824.928h28.256v-248.96h-28.256v248.96zM331.904 824.928h28.256v-248.96h-28.256v248.96zM165.92 824.928h28.256v-248.96h-28.256v248.96zM229.792 25.696c0.352 18.816 3.616 35.424 9.76 49.984 6.144 14.4 14.304 27.456 24.416 39.072s21.536 22.080 34.208 31.744c12.672 9.568 25.696 18.816 39.072 27.648 13.376 8.8 26.688 17.92 39.904 27.168s25.056 19.072 35.552 29.568 18.368 21.248 23.616 32.352c5.248 11.008 7.872 24.128 7.872 39.328 0 12.288-2.272 23.264-6.784 32.864-4.544 9.568-10.656 17.728-18.464 24.448-7.776 6.688-16.832 11.744-27.136 15.2s-21.248 5.12-32.832 5.12c-15.552 0-28.864-2.88-39.904-8.672s-20-13.6-26.88-23.328c-6.88-9.728-11.84-20.992-14.912-33.664s-4.448-26.016-4.064-40.128h-34.208c-0.352 19.456 1.92 37.504 6.784 53.984s12.384 30.688 22.528 42.624c10.112 11.936 22.88 21.248 38.272 27.936 15.36 6.688 33.376 10.016 54.016 10.016 16.64 0 32.096-2.272 46.4-6.784 14.272-4.544 26.752-11.232 37.44-20.064 10.656-8.864 18.976-20 24.96-33.376 5.984-13.408 8.96-28.96 8.96-46.656 0-15.936-2.656-30.432-7.872-43.392-5.248-12.992-12.32-24.928-21.184-35.808s-18.976-20.832-30.4-30.080c-11.392-9.248-23.424-17.856-36.096-25.856-9.056-6.080-19.712-12.896-32-20.32-12.32-7.392-24.16-15.68-35.552-24.672-11.392-9.056-21.44-18.976-30.112-29.664s-14.112-22.336-16.288-35.072h211.136v-31.392l-250.208-0.128zM726.624 360.544c-13.952 12.992-31.936 19.488-54.016 19.488s-39.936-5.6-53.728-16.8c-13.76-11.232-24.384-25.312-32-42.304-7.552-17.056-12.64-35.36-15.2-55.104-2.496-19.68-3.808-38.24-3.808-55.616h1.12c8.992 18.848 22.688 33.984 40.928 45.664 18.272 11.52 38.272 17.376 60 17.376 19.2 0 36.448-3.232 51.808-9.504 15.328-6.368 28.512-15.168 39.328-26.368 10.816-11.232 19.296-24.608 25.248-40.128 5.952-15.552 8.896-32.608 8.896-51.040 0-18.464-3.2-35.52-9.504-51.328-6.368-15.744-15.2-29.312-26.624-40.672-11.328-11.392-24.928-20.32-40.672-26.624-15.744-6.272-32.992-9.504-51.808-9.504-23.232 0-43.104 3.552-59.68 10.624-16.672 7.040-30.4 18.496-41.216 34.432-10.912 15.936-18.976 36.672-24.224 62.112s-7.872 56.864-7.872 94.176c0 7.52 0.48 17.568 1.408 29.824 0.832 12.32 3.008 25.44 6.208 39.36 3.232 13.92 7.872 28 13.856 42.304 6.016 14.272 13.952 27.232 23.84 38.816 9.984 11.552 22.368 20.96 37.184 28.224s32.608 10.848 53.184 10.848c33.984 0 60.992-8.16 80.832-24.416 19.872-16.32 31.808-41.248 35.808-74.912h-34.144c-2.784 21.024-11.2 38.016-25.152 51.072zM629.504 236.512c-11.744-5.248-21.696-12.384-29.888-21.44-8.128-8.992-14.24-19.616-18.432-31.744s-6.24-25.184-6.24-39.328c0-13.376 1.824-26.048 5.44-38.016 3.616-12 9.312-22.368 17.12-31.232 7.744-8.832 17.632-15.872 29.568-20.896 11.936-5.056 26.24-7.552 42.88-7.552 13.792 0 26.112 2.624 37.184 7.872 11.008 5.184 20.672 12.256 28.736 21.12 8.096 8.832 14.368 19.328 18.752 31.264 4.32 11.936 6.496 24.384 6.496 37.44 0 13.76-2.112 26.752-6.24 39.072-4.192 12.32-10.112 23.008-17.952 32-7.744 9.056-17.376 16.192-28.736 21.44s-24.32 7.872-38.816 7.872c-14.816 0-28.128-2.624-39.872-7.872z" />
<glyph unicode="&#xe613;" glyph-name="uniE613" d="M511.968-192c-172.512 0-307.648 137.376-307.648 312.672 0 94.944 24.832 152.992 62.112 211.072 13.984 21.76 30.208 39.648 45.952 56.928 16.192 17.76 46.816 103.136 62.304 152.768l3.072 9.952h268.48l3.104-9.952c15.456-49.664 46.080-135.040 62.208-152.704 15.808-17.44 32.064-35.296 46.016-56.992 37.28-57.984 62.112-116.128 62.112-211.072 0-175.296-135.168-312.672-307.712-312.672zM398.496 523.168c-10.624-32.96-42.784-128.832-65.216-153.472-14.944-16.448-30.4-33.44-43.104-53.184-34.592-53.888-57.632-107.776-57.632-195.776 0-159.488 122.72-284.512 279.392-284.512s279.424 124.96 279.424 284.512c0 88-23.008 141.92-57.632 195.776-12.672 19.712-28.096 36.672-43.040 53.056-22.496 24.736-54.688 120.64-65.28 153.6h-226.912zM368.32 644.928h287.392v-28.256h-287.392v28.256zM368.32 738.464h287.392v-28.256h-287.392v28.256zM440.544 832h143.008v-28.256h-143.008v28.256z" />
<glyph unicode="&#xe614;" glyph-name="uniE614" d="M1024 306.048v27.872h-161.28c-3.328 86.304-38.016 164.672-92.96 224.096l114.144 114.144-19.68 19.712-114.144-114.144c-59.392 54.944-137.856 89.6-224.16 92.992v161.28h-27.84v-161.248c-86.304-3.36-164.672-38.048-224.16-92.96l-114.112 114.048-19.712-19.68 114.080-114.080c-54.944-59.424-89.6-137.824-92.96-224.128h-161.216v-27.872h161.216c3.36-86.304 38.016-164.704 92.96-224.192l-114.048-114.016 19.712-19.68 114.048 114.016c59.424-54.944 137.824-89.568 224.128-92.96v-161.248h27.84v161.184c86.336 3.36 164.736 38.048 224.192 93.056l114.112-114.144 19.68 19.712-114.112 114.112c54.944 59.392 89.568 137.824 92.928 224.096h161.344zM511.968-3.328c-178.24 0-323.264 145.056-323.264 323.328 0 178.208 144.992 323.264 323.264 323.264s323.296-145.056 323.296-323.264c0-178.24-145.088-323.328-323.296-323.328z" />
<glyph unicode="&#xe615;" glyph-name="uniE615" d="M512.032 577.728c-282.784 0-512.032-232.672-512.032-515.488h1024c0 282.816-229.216 515.488-511.968 515.488zM28.672 90.112c12 214.048 161.76 391.488 361.184 443.904-102.368-76.64-175.264-246.144-181.568-443.904h-179.616zM320.928 411.936c48.928 83.104 111.36 131.328 177.152 137.28v-459.104h-261.92c3.936 121.632 33.696 235.008 84.768 321.824zM525.984 90.112v459.104c65.792-5.984 128.192-54.176 177.152-137.28 51.072-86.816 80.8-200.16 84.736-321.824h-261.888zM815.744 90.112c-6.304 197.76-79.2 367.296-181.568 443.904 199.36-52.416 349.12-229.888 361.184-443.904h-179.616z" />
<glyph unicode="&#xe616;" glyph-name="uniE616" d="M1024 534.4h-268.8v217.6h-486.4v-214.4h-268.8v-486.4h268.8v-163.2h486.4v163.2h268.8v483.2zM377.6 643.2h268.8v-108.8h-268.8v108.8zM646.4-3.2h-268.8v163.2h268.8v-163.2zM915.2 156.8h-163.2v108.8h-483.2v-108.8h-160v268.8h809.6v-268.8z" />
<glyph unicode="&#xe617;" glyph-name="uniE617" d="M25.6 643.2v-646.4h969.6v646.4h-969.6zM812.8 534.4l-294.4-220.8-297.6 220.8h592zM134.4 105.6v377.6l384-288 368 278.4v-368h-752z" />
<glyph unicode="&#xe618;" glyph-name="uniE618" d="M1024 284.8v67.2h-144c-6.4 102.4-38.4 153.6-83.2 208l99.2 105.6-48 51.2-99.2-99.2c-57.6 48-134.4 76.8-201.6 86.4v128h-67.2v-131.2c-67.2-6.4-147.2-38.4-204.8-83.2l-102.4 99.2-48-48 99.2-105.6c-48-57.6-76.8-105.6-83.2-208h-140.8v-67.2h140.8c6.4-67.2 38.4-140.8 83.2-198.4l-99.2-99.2 48-48 102.4 102.4c57.6-48 134.4-76.8 204.8-83.2v-153.6h67.2v153.6c67.2 6.4 147.2 38.4 201.6 83.2l99.2-99.2 48 48-102.4 96c48 57.6 76.8 128 83.2 198.4h147.2zM812.8 355.2h-217.6l153.6 153.6c32-44.8 57.6-86.4 64-153.6zM700.8 566.4l-153.6-153.6v217.6c67.2-6.4 108.8-28.8 153.6-64zM476.8 630.4v-217.6l-153.6 153.6c44.8 35.2 86.4 57.6 153.6 64zM272 508.8l153.6-153.6h-217.6c6.4 67.2 32 108.8 64 153.6zM208 284.8h217.6l-153.6-153.6c-32 44.8-57.6 121.6-64 153.6zM323.2 92.8l153.6 153.6v-217.6c-67.2 6.4-108.8 28.8-153.6 64zM547.2 28.8v217.6l153.6-153.6c-44.8-35.2-86.4-57.6-153.6-64zM745.6 131.2l-153.6 153.6h217.6c-3.2-32-28.8-108.8-64-153.6z" />
<glyph unicode="&#xe619;" glyph-name="uniE619" d="M512 832c-281.6 0-512-230.4-512-512s230.4-512 512-512c281.6 0 512 230.4 512 512s-230.4 512-512 512zM547.2-121.6v124.8h-67.2v-124.8c-204.8 16-393.6 192-409.6 396.8h102.4v67.2h-102.4c16 240 204.8 403.2 409.6 419.2v-112h67.2v112c204.8-16 387.2-179.2 406.4-419.2h-131.2v-67.2h131.2c-16-204.8-201.6-380.8-406.4-396.8zM512 368l-92.8 92.8-48-48 140.8-140.8 268.8 268.8-48 48z" />
<glyph unicode="&#xe61a;" glyph-name="uniE61A" d="M240 48c0 35.2 3.2 44.8 6.4 60.8s9.6 32 19.2 44.8c9.6 12.8 19.2 25.6 28.8 35.2 12.8 9.6 28.8 22.4 48 35.2 9.6 6.4 22.4 16 28.8 22.4 9.6 6.4 16 12.8 22.4 19.2s9.6 12.8 12.8 22.4c3.2 6.4 3.2 16 3.2 25.6 0 16-3.2 28.8-12.8 38.4s-22.4 16-38.4 16c-9.6 0-16-3.2-25.6-6.4-6.4-3.2-12.8-9.6-16-16s-6.4-16-9.6-25.6c-3.2-9.6-3.2-32-3.2-32h-64c0 35.2 12.8 76.8 32 99.2 22.4 22.4 51.2 32 86.4 32 16 0 32-3.2 44.8-6.4 12.8-6.4 25.6-12.8 35.2-22.4s19.2-22.4 25.6-35.2c6.4-12.8 9.6-28.8 9.6-44.8 0-12.8-3.2-28.8-6.4-38.4-3.2-12.8-9.6-22.4-16-32s-16-19.2-25.6-28.8c-9.6-9.6-22.4-16-35.2-25.6-12.8-6.4-22.4-12.8-32-19.2s-16-9.6-22.4-16c-6.4-6.4-9.6-9.6-16-16-3.2-6.4-6.4-19.2-9.6-19.2h160v-67.2h-230.4zM704 320c-3.2 0-6.4 25.6-16 35.2s-19.2 12.8-35.2 12.8c-12.8 0-22.4-3.2-28.8-9.6-9.6-6.4-16-12.8-22.4-22.4s-12.8-22.4-16-35.2c-3.2-12.8-6.4-25.6-6.4-38.4v-16c0 16 25.6 25.6 38.4 32s28.8 9.6 48 9.6c16 0 32-3.2 44.8-9.6s25.6-12.8 35.2-25.6c9.6-9.6 16-22.4 22.4-38.4 6.4-12.8 6.4-28.8 6.4-48 0-16-3.2-32-9.6-48s-12.8-28.8-25.6-41.6c-9.6-12.8-22.4-19.2-38.4-28.8-16-6.4-32-9.6-54.4-9.6s-44.8 3.2-60.8 16c-16 9.6-32 22.4-41.6 38.4s-19.2 35.2-22.4 57.6c-6.4 22.4-6.4 44.8-6.4 70.4s3.2 51.2 9.6 76.8c6.4 22.4 12.8 44.8 25.6 60.8s25.6 32 44.8 41.6c16 9.6 38.4 16 60.8 16 32 0 57.6-6.4 80-25.6 19.2-19.2 32-41.6 35.2-73.6h-67.2zM649.6 236.8c-9.6 0-16-3.2-25.6-6.4-6.4-3.2-12.8-6.4-19.2-12.8s-9.6-12.8-12.8-22.4c-3.2-9.6-3.2-16-3.2-25.6s0-19.2 3.2-25.6c3.2-9.6 6.4-16 12.8-22.4s9.6-9.6 19.2-16c6.4-3.2 16-6.4 25.6-6.4s16 3.2 22.4 6.4c6.4 3.2 12.8 9.6 19.2 12.8 6.4 6.4 9.6 12.8 12.8 22.4s3.2 16 3.2 25.6c0 19.2-6.4 35.2-16 48-6.4 16-22.4 22.4-41.6 22.4zM1024-192h-1024v1024h67.2v-956.8h889.6v956.8h67.2zM819.2 832h67.2v-240h-67.2v240zM681.6 832h67.2v-240h-67.2v240zM547.2 832h67.2v-240h-67.2v240zM409.6 832h67.2v-240h-67.2v240zM272 832h67.2v-240h-67.2v240zM137.6 832h67.2v-240h-67.2v240z" />
<glyph unicode="&#xe61b;" glyph-name="uniE61B" d="M723.2-192l-512 512 512 512 89.6-89.6-425.6-422.4 425.6-422.4z" />
<glyph unicode="&#xe61c;" glyph-name="uniE61C" d="M300.8 832l512-512-512-512-89.6 89.6 425.6 422.4-425.6 422.4z" />
<glyph unicode="&#xe61d;" glyph-name="uniE61D" d="M566.4-192v480h176l22.4 147.2h-198.4v134.4c0 54.4 32 89.6 108.8 89.6h115.2v166.4c-38.4 0-89.6 6.4-156.8 6.4-140.8 0-249.6-86.4-249.6-243.2v-153.6h-150.4v-147.2h150.4v-480h182.4z" />
<glyph unicode="&#xe61e;" glyph-name="uniE61E" d="M323.2-96c-118.4 0-230.4 35.2-323.2 92.8 16-3.2 32-3.2 51.2-3.2 99.2 0 188.8 35.2 262.4 89.6-92.8 3.2-169.6 64-195.2 147.2 12.8-3.2 25.6-3.2 38.4-3.2 19.2 0 35.2 3.2 54.4 6.4-96 19.2-169.6 105.6-169.6 204.8 0 0 0 3.2 0 3.2 35.2-16 64-25.6 96-25.6-57.6 38.4-92.8 102.4-92.8 176 0 38.4 9.6 73.6 28.8 105.6 102.4-128 259.2-211.2 432-220.8-3.2 16-6.4 32-6.4 48 0 115.2 92.8 211.2 211.2 211.2 60.8 0 115.2-25.6 153.6-67.2 48 9.6 92.8 25.6 134.4 51.2-16-48-48-89.6-92.8-115.2 41.6 6.4 83.2 16 121.6 32-28.8-41.6-64-80-105.6-108.8 0-9.6 0-19.2 0-25.6-3.2-278.4-214.4-598.4-598.4-598.4z" />
<glyph unicode="&#xe61f;" glyph-name="uniE61F" d="M1024-169.6h-89.6c0 534.4-400 889.6-934.4 889.6v89.6c579.2 0 1024-400 1024-979.2zM617.6-169.6h-89.6c0 268.8-259.2 483.2-528 483.2v89.6c355.2 0 617.6-214.4 617.6-572.8zM176-102.4c0-37.114-30.086-67.2-67.2-67.2s-67.2 30.086-67.2 67.2c0 37.114 30.086 67.2 67.2 67.2s67.2-30.086 67.2-67.2z" />
<glyph unicode="&#xe620;" glyph-name="uniE620" d="M364.8-48l-364.8 332.8 41.6 48 320-291.2 617.6 646.4 44.8-44.8z" />
<glyph unicode="&#xe621;" glyph-name="uniE621" d="M531.2 195.2v227.2l105.6-76.8 19.2 28.8-140.8 105.6-144-105.6 19.2-28.8 102.4 76.8v-227.2h-492.8v-35.2h1024v35.2z" />
<glyph unicode="&#xe622;" glyph-name="uniE622" d="M1024 742.4l-89.6 89.6-422.4-422.4-422.4 422.4-89.6-89.6 422.4-422.4-422.4-422.4 89.6-89.6 422.4 422.4 422.4-422.4 89.6 89.6-422.4 422.4z" />
<glyph unicode="&#xe623;" glyph-name="uniE623" d="M1024 16l-403.2 249.6c16 38.4 25.6 80 25.6 124.8 0 179.2-144 323.2-323.2 323.2-179.2-3.2-323.2-147.2-323.2-326.4 0-176 144-323.2 323.2-323.2 99.2 0 185.6 44.8 243.2 112l403.2-249.6 54.4 89.6zM323.2 166.4c-121.6 0-220.8 99.2-220.8 220.8s99.2 220.8 220.8 220.8c121.6 0 220.8-99.2 220.8-220.8s-99.2-220.8-220.8-220.8z" />
<glyph unicode="&#xe624;" glyph-name="uniE624" d="M1024 354.112h-477.888v477.888h-68.224v-477.888h-477.888v-68.224h477.888v-477.888h68.224v477.888h477.888z" />
<glyph unicode="&#xe625;" glyph-name="uniE625" d="M576.928 607.136c0-28.277-22.923-51.2-51.2-51.2s-51.2 22.923-51.2 51.2c0 28.277 22.923 51.2 51.2 51.2s51.2-22.923 51.2-51.2z" />
<glyph unicode="&#xe626;" glyph-name="uniE626" d="M512 707.2c-272 0-492.8-163.2-492.8-364.8s220.8-364.8 492.8-364.8c80 0 156.8 16 224 38.4l195.2-86.4v217.6c48 54.4 73.632 121.632 73.632 192-0.032 204.8-220.832 368-492.832 368zM892.8 182.4l-12.8-12.8v-156.8l-124.8 51.2-19.2 9.6-19.2-6.4c-64-25.6-134.4-35.2-204.8-35.2-243.2 0-441.6 140.8-441.6 313.6s198.4 313.6 441.6 313.6c243.2 0 441.6-140.8 441.6-313.6 0-57.6-22.4-112-60.8-163.2zM338.336 319.008h130.4v43.744h-130.4v57.6h140.16v43.936h-192.608v-259.744h197.568v43.776h-145.12zM689.44 290.816l-106.304 173.472h-51.040v-259.744h48.704v169.376l104.736-169.376h52.608v259.744h-48.704z" />
<glyph unicode="&#xe627;" glyph-name="uniE627" d="M512 707.2c-272 0-492.8-163.2-492.8-364.8s220.8-364.8 492.8-364.8c80 0 156.8 16 224 38.4l195.2-86.4v217.6c48 54.4 73.632 121.632 73.632 192-0.032 204.8-220.832 368-492.832 368zM483.456 204.544h-197.568v259.776h192.608v-43.968h-140.16v-57.568h130.432v-43.776h-130.432v-70.688h145.12v-43.776zM738.144 204.544h-52.64l-104.704 169.376v-169.376h-48.704v259.776h51.040l106.304-173.472v173.472h48.704v-259.776z" />
<glyph unicode="&#xe696;" glyph-name="envelope" d="M896 512h-819.2c-42.347 0-76.8-34.453-76.8-76.8v-460.8c0-42.349 34.453-76.8 76.8-76.8h819.2c42.349 0 76.8 34.451 76.8 76.8v460.8c0 42.347-34.451 76.8-76.8 76.8zM896 460.8c1.514 0 2.99-0.158 4.434-0.411l-385.632-257.090c-14.862-9.907-41.938-9.907-56.802 0l-385.634 257.090c1.443 0.253 2.92 0.411 4.434 0.411h819.2zM896-51.2h-819.2c-14.115 0-25.6 11.485-25.6 25.6v438.566l378.4-252.267c15.925-10.618 36.363-15.925 56.8-15.925s40.877 5.307 56.802 15.925l378.398 252.267v-438.566c0-14.115-11.485-25.6-25.6-25.6z" />
<glyph unicode="&#xe699;" glyph-name="paper-plane" d="M1015.456 761.491c-7.371 6.587-17.877 8.341-26.99 4.502l-972.8-409.6c-9.822-4.136-16.056-13.925-15.646-24.576 0.41-10.65 7.374-19.933 17.486-23.302l289.694-96.566v-288.749c0-10.835 6.822-20.499 17.034-24.125 2.805-0.995 5.698-1.477 8.562-1.477 7.562 0 14.917 3.358 19.874 9.458l141.472 174.12 230.27-227.392c4.851-4.79 11.339-7.384 17.989-7.384 2.133 0 4.283 0.267 6.402 0.814 8.72 2.253 15.616 8.922 18.157 17.563l256 870.4c2.792 9.483-0.13 19.726-7.502 26.314zM825.862 641.976l-497.882-382.986-229.79 76.597 727.672 306.389zM358.4 217.795l482.062 370.816-368.346-453.347c-0.011-0.013-0.022-0.027-0.034-0.040l-113.683-139.92v222.491zM729.922-79.699l-203.342 200.8 411.28 506.192-207.938-706.992z" />
<glyph unicode="&#xe6b1;" glyph-name="printer" d="M947.2 614.4h-76.8v128c0 42.347-34.453 76.8-76.8 76.8h-563.2c-42.347 0-76.8-34.453-76.8-76.8v-128h-76.8c-42.347 0-76.8-34.453-76.8-76.8v-460.8c0-42.349 34.453-76.8 76.8-76.8h76.8v-128c0-42.347 34.453-76.8 76.8-76.8h563.2c42.347 0 76.8 34.453 76.8 76.8v128h76.8c42.349 0 76.8 34.451 76.8 76.8v460.8c0 42.347-34.451 76.8-76.8 76.8zM204.8 742.4c0 14.115 11.485 25.6 25.6 25.6h563.2c14.115 0 25.6-11.485 25.6-25.6v-128h-614.4v128zM793.6-153.6h-563.2c-14.115 0-25.6 11.485-25.6 25.6v332.8h614.4v-332.8c0-14.115-11.485-25.6-25.6-25.6zM972.8 76.8c0-14.115-11.485-25.6-25.6-25.6h-76.8v153.6h25.6c14.139 0 25.6 11.461 25.6 25.6s-11.461 25.6-25.6 25.6h-768c-14.138 0-25.6-11.461-25.6-25.6s11.462-25.6 25.6-25.6h25.6v-153.6h-76.8c-14.115 0-25.6 11.485-25.6 25.6v460.8c0 14.115 11.485 25.6 25.6 25.6h870.4c14.115 0 25.6-11.485 25.6-25.6v-460.8zM742.4 102.4h-460.8c-14.138 0-25.6 11.461-25.6 25.6s11.462 25.6 25.6 25.6h460.8c14.139 0 25.6-11.461 25.6-25.6s-11.461-25.6-25.6-25.6zM742.4 0h-460.8c-14.138 0-25.6 11.461-25.6 25.6s11.462 25.6 25.6 25.6h460.8c14.139 0 25.6-11.461 25.6-25.6s-11.461-25.6-25.6-25.6zM742.4-102.4h-460.8c-14.138 0-25.6 11.461-25.6 25.6s11.462 25.6 25.6 25.6h460.8c14.139 0 25.6-11.461 25.6-25.6s-11.461-25.6-25.6-25.6zM844.8 358.4c-42.349 0-76.8 34.453-76.8 76.8s34.451 76.8 76.8 76.8 76.8-34.453 76.8-76.8-34.451-76.8-76.8-76.8zM844.8 460.8c-14.115 0-25.6-11.485-25.6-25.6s11.485-25.6 25.6-25.6 25.6 11.485 25.6 25.6-11.485 25.6-25.6 25.6z" />
<glyph unicode="&#xe6d1;" glyph-name="register" d="M742.4-204.8h-665.6c-42.347 0-76.8 34.451-76.8 76.8v819.2c0 42.347 34.453 76.8 76.8 76.8h665.6c42.349 0 76.8-34.453 76.8-76.8v-102.4c0-14.138-11.461-25.6-25.6-25.6s-25.6 11.462-25.6 25.6v102.4c0 14.115-11.485 25.6-25.6 25.6h-665.6c-14.115 0-25.6-11.485-25.6-25.6v-819.2c0-14.115 11.485-25.6 25.6-25.6h665.6c14.115 0 25.6 11.485 25.6 25.6v204.8c0 14.139 11.461 25.6 25.6 25.6s25.6-11.461 25.6-25.6v-204.8c0-42.349-34.451-76.8-76.8-76.8zM537.6 563.2h-358.4c-14.138 0-25.6 11.462-25.6 25.6s11.462 25.6 25.6 25.6h358.4c14.139 0 25.6-11.462 25.6-25.6s-11.461-25.6-25.6-25.6zM640 460.8h-460.8c-14.138 0-25.6 11.462-25.6 25.6s11.462 25.6 25.6 25.6h460.8c14.139 0 25.6-11.462 25.6-25.6s-11.461-25.6-25.6-25.6zM588.8 358.4h-409.6c-14.138 0-25.6 11.462-25.6 25.6s11.462 25.6 25.6 25.6h409.6c14.139 0 25.6-11.462 25.6-25.6s-11.461-25.6-25.6-25.6zM435.2 256h-256c-14.138 0-25.6 11.461-25.6 25.6s11.462 25.6 25.6 25.6h256c14.138 0 25.6-11.461 25.6-25.6s-11.462-25.6-25.6-25.6zM435.2-51.2c-6.87 0-13.554 2.768-18.438 7.84-6.331 6.573-8.683 16.019-6.176 24.792l51.2 179.2c1.195 4.182 3.437 7.992 6.512 11.069l384 384c9.997 9.997 26.206 9.997 36.203 0l128-128c9.933-9.933 10.006-26.011 0.166-36.035l-384-391.2c-3.331-3.395-7.544-5.794-12.165-6.928l-179.2-44c-2.021-0.496-4.069-0.738-6.102-0.738zM509.194 140.189l-37.261-130.41 129.296 31.747 361.136 367.906-91.965 91.965-361.206-361.208zM332.8-51.2h-153.6c-14.138 0-25.6 11.461-25.6 25.6s11.462 25.6 25.6 25.6h153.6c14.138 0 25.6-11.461 25.6-25.6s-11.462-25.6-25.6-25.6z" />
<glyph unicode="&#xe6d7;" glyph-name="typewriter" d="M896 460.8h-25.6v25.6c0 42.347-34.451 76.8-76.8 76.8h-25.6v179.2c0 42.347-34.453 76.8-76.8 76.8h-512c-42.347 0-76.8-34.453-76.8-76.8v-179.2h-25.6c-42.347 0-76.8-34.453-76.8-76.8v-614.4c0-42.349 34.453-76.8 76.8-76.8h716.8c42.349 0 76.8 34.451 76.8 76.8v384h25.6c42.349 0 76.8 34.451 76.8 76.8v51.2c0 42.347-34.451 76.8-76.8 76.8zM588.8 307.2c14.115 0 25.6-11.485 25.6-25.6s-11.485-25.6-25.6-25.6h-307.2c-14.115 0-25.6 11.485-25.6 25.6s11.485 25.6 25.6 25.6c14.138 0 25.6 11.462 25.6 25.6s-11.462 25.6-25.6 25.6h-102.4c-14.115 0-25.6 11.485-25.6 25.6v25.6h563.2v-25.6c0-14.115-11.485-25.6-25.6-25.6h-102.4c-14.139 0-25.6-11.462-25.6-25.6s11.461-25.6 25.6-25.6zM179.2 768h512c14.115 0 25.6-11.485 25.6-25.6v-281.6h-563.2v281.6c0 14.115 11.485 25.6 25.6 25.6zM819.2-128c0-14.115-11.485-25.6-25.6-25.6h-716.8c-14.115 0-25.6 11.485-25.6 25.6v614.4c0 14.115 11.485 25.6 25.6 25.6h25.6v-128c0-42.347 34.453-76.8 76.8-76.8h29.987c-2.84-8.011-4.387-16.629-4.387-25.6 0-42.347 34.453-76.8 76.8-76.8h307.2c42.347 0 76.8 34.453 76.8 76.8 0 8.971-1.547 17.589-4.387 25.6h29.987c42.347 0 76.8 34.453 76.8 76.8v128h25.6c14.115 0 25.6-11.485 25.6-25.6v-614.4zM921.6 332.8c0-14.115-11.485-25.6-25.6-25.6h-25.6v102.4h25.6c14.115 0 25.6-11.485 25.6-25.6v-51.2zM153.6 128c0-14.138-11.462-25.6-25.6-25.6s-25.6 11.462-25.6 25.6c0 14.138 11.462 25.6 25.6 25.6s25.6-11.462 25.6-25.6zM256 128c0-14.138-11.462-25.6-25.6-25.6s-25.6 11.462-25.6 25.6c0 14.138 11.462 25.6 25.6 25.6s25.6-11.462 25.6-25.6zM358.4 128c0-14.138-11.462-25.6-25.6-25.6s-25.6 11.462-25.6 25.6c0 14.138 11.462 25.6 25.6 25.6s25.6-11.462 25.6-25.6zM563.2 128c0-14.138-11.462-25.6-25.6-25.6s-25.6 11.462-25.6 25.6c0 14.138 11.462 25.6 25.6 25.6s25.6-11.462 25.6-25.6zM665.6 128c0-14.138-11.462-25.6-25.6-25.6s-25.6 11.462-25.6 25.6c0 14.138 11.462 25.6 25.6 25.6s25.6-11.462 25.6-25.6zM768 128c0-14.138-11.462-25.6-25.6-25.6s-25.6 11.462-25.6 25.6c0 14.138 11.462 25.6 25.6 25.6s25.6-11.462 25.6-25.6zM204.8 25.6c0-14.138-11.462-25.6-25.6-25.6s-25.6 11.462-25.6 25.6c0 14.138 11.462 25.6 25.6 25.6s25.6-11.462 25.6-25.6zM307.2 25.6c0-14.138-11.462-25.6-25.6-25.6s-25.6 11.462-25.6 25.6c0 14.138 11.462 25.6 25.6 25.6s25.6-11.462 25.6-25.6zM512 25.6c0-14.138-11.462-25.6-25.6-25.6s-25.6 11.462-25.6 25.6c0 14.138 11.462 25.6 25.6 25.6s25.6-11.462 25.6-25.6zM614.4 25.6c0-14.138-11.462-25.6-25.6-25.6s-25.6 11.462-25.6 25.6c0 14.138 11.462 25.6 25.6 25.6s25.6-11.462 25.6-25.6zM716.8 25.6c0-14.138-11.462-25.6-25.6-25.6s-25.6 11.462-25.6 25.6c0 14.138 11.462 25.6 25.6 25.6s25.6-11.462 25.6-25.6zM640-102.4h-409.6c-14.138 0-25.6 11.461-25.6 25.6s11.462 25.6 25.6 25.6h409.6c14.139 0 25.6-11.461 25.6-25.6s-11.461-25.6-25.6-25.6zM460.8 128c0-14.138-11.462-25.6-25.6-25.6s-25.6 11.462-25.6 25.6c0 14.138 11.462 25.6 25.6 25.6s25.6-11.462 25.6-25.6zM409.6 25.6c0-14.138-11.462-25.6-25.6-25.6s-25.6 11.462-25.6 25.6c0 14.138 11.462 25.6 25.6 25.6s25.6-11.462 25.6-25.6zM384 665.6h-153.6c-14.138 0-25.6 11.462-25.6 25.6s11.462 25.6 25.6 25.6h153.6c14.138 0 25.6-11.462 25.6-25.6s-11.462-25.6-25.6-25.6zM640 563.2h-409.6c-14.138 0-25.6 11.462-25.6 25.6s11.462 25.6 25.6 25.6h409.6c14.139 0 25.6-11.462 25.6-25.6s-11.461-25.6-25.6-25.6z" />
<glyph unicode="&#xe70e;" glyph-name="picture" d="M691.2 358.4c-70.579 0-128 57.421-128 128s57.421 128 128 128 128-57.421 128-128-57.421-128-128-128zM691.2 563.2c-42.347 0-76.8-34.453-76.8-76.8s34.453-76.8 76.8-76.8 76.8 34.453 76.8 76.8-34.453 76.8-76.8 76.8zM947.2 819.2h-870.4c-42.347 0-76.8-34.453-76.8-76.8v-870.4c0-42.349 34.453-76.8 76.8-76.8h870.4c42.349 0 76.8 34.451 76.8 76.8v870.4c0 42.347-34.451 76.8-76.8 76.8zM51.2-128v246.102l214.902 236.392c4.333 4.766 10.051 7.434 16.101 7.51 6.022 0.029 11.835-2.443 16.288-7.099l486.397-508.506h-708.088c-14.115 0-25.6 11.485-25.6 25.6zM972.8-128c0-14.115-11.485-25.6-25.6-25.6h-91.461l-520.25 543.896c-14.376 15.029-33.534 23.146-53.936 22.904-20.405-0.259-39.347-8.877-53.336-24.266l-177.018-194.717v548.182c0 14.115 11.485 25.6 25.6 25.6h870.4c14.115 0 25.6-11.485 25.6-25.6v-870.4z" />
<glyph unicode="&#xe712;" glyph-name="book" d="M965.301 581.301c-38.886 38.888-127.301 84.299-248.501 84.299-105.082 0-185.518-34.136-230.4-68.56-44.88 34.424-125.32 68.56-230.4 68.56-121.2 0-209.614-45.411-248.501-84.299-4.802-4.8-7.499-11.31-7.499-18.101v-563.2c0-10.355 6.237-19.69 15.803-23.651s20.576-1.77 27.899 5.55c25.739 25.738 99.419 69.301 212.298 69.301s186.558-43.563 212.299-69.301c9.997-9.997 26.206-9.997 36.203 0 25.739 25.738 99.418 69.301 212.298 69.301s186.558-43.563 212.299-69.301c4.898-4.899 11.443-7.499 18.107-7.499 3.298 0 6.624 0.637 9.79 1.949 9.566 3.962 15.803 13.296 15.803 23.651v563.2c0 6.79-2.698 13.301-7.499 18.101zM51.2 51.018v500.91c30.901 25.923 101.408 62.472 204.8 62.472 103.429 0 173.915-36.565 204.8-62.49v-500.912c-47.026 27.766-117.371 51.402-204.8 51.402-87.416 0-157.776-23.624-204.8-51.382zM921.6 51.018c-47.024 27.758-117.384 51.382-204.8 51.382-87.429 0-157.774-23.635-204.8-51.402v500.912c30.885 25.925 101.371 62.49 204.8 62.49 103.392 0 173.899-36.549 204.8-62.472v-500.91z" />
<glyph unicode="&#xe714;" glyph-name="book2" d="M742.4-102.4h-512c-14.138 0-25.6 11.461-25.6 25.6s11.462 25.6 25.6 25.6h512c14.139 0 25.6-11.461 25.6-25.6s-11.461-25.6-25.6-25.6zM844.8 665.6c-14.139 0-25.6-11.462-25.6-25.6v-768c0-14.115-11.485-25.6-25.6-25.6h-563.2c-42.347 0-76.8 34.453-76.8 76.8s34.453 76.8 76.8 76.8h460.8c42.349 0 76.8 34.451 76.8 76.8v614.4c0 42.347-34.451 76.8-76.8 76.8h-512c-42.347 0-76.8-34.453-76.8-76.8v-768c0-70.579 57.421-128 128-128h563.2c42.349 0 76.8 34.451 76.8 76.8v768c0 14.138-11.461 25.6-25.6 25.6zM179.2 716.8h512c14.115 0 25.6-11.485 25.6-25.6v-614.4c0-14.115-11.485-25.6-25.6-25.6h-460.8c-28.794 0-55.392-9.563-76.8-25.67v665.67c0 14.115 11.485 25.6 25.6 25.6z" />
<glyph unicode="&#xe718;" glyph-name="library" d="M537.6 819.2h-102.4c-42.347 0-76.8-34.453-76.8-76.8v-30.003c-8.013 2.842-16.626 4.403-25.6 4.403h-256c-42.347 0-76.8-34.453-76.8-76.8v-768c0-42.349 34.453-76.8 76.8-76.8h256c19.654 0 37.602 7.43 51.2 19.619 13.598-12.187 31.546-19.619 51.2-19.619h102.4c42.349 0 76.8 34.451 76.8 76.8v870.4c0 42.347-34.451 76.8-76.8 76.8zM332.8-153.6h-256c-14.115 0-25.6 11.485-25.6 25.6v768c0 14.115 11.485 25.6 25.6 25.6h256c14.115 0 25.6-11.485 25.6-25.6v-768c0-14.115-11.485-25.6-25.6-25.6zM563.2-128c0-14.115-11.485-25.6-25.6-25.6h-102.4c-14.115 0-25.6 11.485-25.6 25.6v870.4c0 14.115 11.485 25.6 25.6 25.6h102.4c14.115 0 25.6-11.485 25.6-25.6v-870.4zM281.6 512h-146.4c-14.138 0-25.6 11.462-25.6 25.6s11.462 25.6 25.6 25.6h146.4c14.138 0 25.6-11.462 25.6-25.6s-11.462-25.6-25.6-25.6zM952.856-185.502l-152.456-18.717c-42.034-5.165-80.426 24.834-85.586 66.869l-99.837 813.090c-5.163 42.032 24.834 80.426 66.867 85.587l152.454 18.72c42.034 5.162 80.427-24.835 85.586-66.867l99.835-813.094c5.165-42.034-24.83-80.427-66.864-85.587zM688.085 710.507c-14.010-1.72-24.008-14.518-22.288-28.528l99.834-813.094c1.72-14.011 14.518-24.011 28.528-22.29l152.456 18.718c14.010 1.718 24.010 14.517 22.291 28.528l-99.835 813.096c-1.72 14.010-14.52 24.010-28.53 22.29l-152.456-18.72zM808.442 570.533l-50.821-6.24c-14.034-1.723-26.806 8.258-28.53 22.29-1.722 14.032 8.256 26.805 22.291 28.528l50.819 6.24c14.034 1.723 26.806-8.256 28.53-22.29s-8.254-26.805-22.29-28.528z" />
<glyph unicode="&#xe71e;" glyph-name="user" d="M486.4 256c-155.275 0-281.6 126.325-281.6 281.6s126.325 281.6 281.6 281.6 281.6-126.325 281.6-281.6-126.325-281.6-281.6-281.6zM486.4 768c-127.043 0-230.4-103.357-230.4-230.4s103.357-230.4 230.4-230.4c127.042 0 230.4 103.357 230.4 230.4s-103.358 230.4-230.4 230.4zM896-204.8h-819.2c-42.347 0-76.8 34.451-76.8 76.8 0 3.485 0.712 86.285 62.72 168.96 36.094 48.126 85.514 86.36 146.883 113.634 74.957 33.314 168.085 50.206 276.797 50.206 108.71 0 201.838-16.893 276.797-50.206 61.37-27.275 110.789-65.507 146.883-113.634 62.008-82.675 62.72-165.475 62.72-168.96 0-42.349-34.451-76.8-76.8-76.8zM486.4 153.6c-178.52 0-310.267-48.789-381-141.093-53.011-69.174-54.195-139.904-54.2-140.61 0-14.013 11.485-25.498 25.6-25.498h819.2c14.115 0 25.6 11.485 25.6 25.6-0.006 0.603-1.189 71.333-54.198 140.507-70.734 92.304-202.483 141.093-381.002 141.093z" />
<glyph unicode="&#xe722;" glyph-name="users" d="M969.077-8.091c-18.267 19.485-40.486 36.531-66.352 51.029-15.498 30.917-45.966 71.605-105.395 104.101-24.336 13.306-51.803 24.331-82.274 33.061 62.125 35.21 104.144 101.936 104.144 178.301 0 82.899-49.51 154.451-120.515 186.643-15.19 33.68-39.077 62.518-69.646 83.838-10.414 7.264-21.387 13.474-32.782 18.629-15.192 33.651-39.067 62.466-69.618 83.771-34.442 24.021-74.912 36.718-117.038 36.718-112.928 0-204.8-91.872-204.8-204.8 0-42.125 12.698-82.597 36.717-117.037 21.307-30.55 50.122-54.427 83.774-69.619 5.154-11.395 11.363-22.366 18.626-32.781 9.611-13.781 20.768-26.184 33.187-37.070-76.694-2.406-143.211-13.464-198.080-32.973-51.659-18.366-93.411-44.278-124.099-77.011-54.301-57.92-54.925-117.406-54.925-119.909 0-42.349 34.453-76.8 76.8-76.8h29.074c-3.363-14.902-3.474-24.621-3.474-25.6 0-42.349 34.453-76.8 76.8-76.8h29.074c-3.363-14.902-3.474-24.621-3.474-25.6 0-42.349 34.453-76.8 76.8-76.8h665.6c42.349 0 76.8 34.451 76.8 76.8 0 2.504-0.626 61.989-54.923 119.909zM768 358.4c0-84.696-68.904-153.6-153.6-153.6s-153.6 68.904-153.6 153.6 68.904 153.6 153.6 153.6 153.6-68.904 153.6-153.6zM256 563.2c0 84.696 68.904 153.6 153.6 153.6 44.317 0 85.95-19.557 114.664-51.597-4.072 0.24-8.158 0.397-12.264 0.397-112.928 0-204.8-91.872-204.8-204.8 0-4.107 0.157-8.194 0.397-12.266-32.040 28.714-51.597 70.349-51.597 114.666zM358.4 460.8c0 84.696 68.904 153.6 153.6 153.6 44.307 0 85.934-19.549 114.645-51.576-4.053 0.24-8.133 0.376-12.245 0.376-112.928 0-204.8-91.872-204.8-204.8 0-4.112 0.136-8.194 0.376-12.246-32.027 28.712-51.576 70.339-51.576 114.646zM76.8 51.2c-14.064 0-25.514 11.398-25.6 25.442 0.074 2.8 1.902 45.026 43.765 87.858 40.795 41.742 128.496 91.501 314.635 91.501 9.366 0 18.63-0.141 27.725-0.392 11.266-19.331 25.602-36.658 42.339-51.31-76.762-2.397-143.334-13.453-198.242-32.976-51.659-18.366-93.411-44.278-124.099-77.011-13.67-14.582-23.933-29.262-31.646-43.109h-48.877zM179.2-51.2c-14.064 0-25.515 11.402-25.6 25.446 0.077 2.848 1.93 45.046 43.765 87.853 40.795 41.742 128.496 91.501 314.635 91.501 155.392 0 243.354-34.19 293.131-72.554-54.63 14.168-118.55 21.354-190.731 21.354-90.518 0-168.096-11.264-230.576-33.48-51.659-18.366-93.411-44.278-124.099-77.011-13.67-14.582-23.933-29.262-31.646-43.109h-48.878zM947.2-153.6h-665.6c-14.064 0-25.514 11.398-25.6 25.44 0.074 2.802 1.902 45.027 43.765 87.859 40.795 41.742 128.496 91.501 314.635 91.501s273.84-49.758 314.635-91.501c41.861-42.834 43.69-85.058 43.765-87.859-0.086-14.042-11.536-25.44-25.6-25.44z" />
<glyph unicode="&#xe752;" glyph-name="cart-add" d="M901.021 613.902c-13.874 2.774-27.35-6.219-30.123-20.083l-41.16-205.795c-3.283-16.413-21.459-32.662-38.136-34.093l-522.77-44.806-55.963 335.781c-6.72 40.315-43.998 71.894-84.869 71.894h-51.2c-14.138 0-25.6-11.462-25.6-25.6s11.462-25.6 25.6-25.6h51.2c15.722 0 31.781-13.603 34.366-29.112l85.566-513.395c6.718-40.314 43.997-71.893 84.867-71.893h512c14.139 0 25.6 11.461 25.6 25.6s-11.461 25.6-25.6 25.6h-512c-15.722 0-31.781 13.603-34.366 29.11l-21.158 126.95 518.698 44.459c39.342 3.371 76.227 36.344 83.97 75.066l41.16 205.795c2.773 13.862-6.218 27.349-20.082 30.122zM409.6-204.8c-56.466 0-102.402 45.936-102.402 102.4s45.938 102.4 102.402 102.4 102.402-45.936 102.402-102.4-45.936-102.4-102.402-102.4zM409.6-51.2c-28.234 0-51.202-22.968-51.202-51.2s22.97-51.2 51.202-51.2 51.202 22.968 51.202 51.2-22.968 51.2-51.202 51.2zM768-204.8c-56.464 0-102.4 45.936-102.4 102.4s45.936 102.4 102.4 102.4 102.4-45.936 102.4-102.4-45.936-102.4-102.4-102.4zM768-51.2c-28.232 0-51.2-22.968-51.2-51.2s22.968-51.2 51.2-51.2 51.2 22.968 51.2 51.2-22.968 51.2-51.2 51.2zM709.301 632.501c-9.997 9.998-26.206 9.998-36.203 0l-109.898-109.898v270.997c0 14.138-11.461 25.6-25.6 25.6s-25.6-11.462-25.6-25.6v-270.997l-109.899 109.898c-9.997 9.998-26.206 9.998-36.203 0-9.998-9.997-9.998-26.206 0-36.203l153.6-153.6c5-4.998 11.55-7.498 18.102-7.498s13.102 2.499 18.101 7.499l153.6 153.6c9.998 9.997 9.998 26.205 0 36.202z" />
<glyph unicode="&#xe77a;" glyph-name="map-marker" d="M512-204.8c-7.856 0-15.277 3.606-20.13 9.784-2.931 3.73-72.587 92.864-143.229 224.51-41.581 77.491-74.742 153.568-98.565 226.118-30.043 91.499-45.277 177.758-45.277 256.387 0 169.39 137.81 307.2 307.2 307.2s307.2-137.81 307.2-307.2c0-78.629-15.234-164.888-45.278-256.386-23.822-72.55-56.984-148.629-98.565-226.118-70.64-131.646-140.298-220.781-143.229-224.51-4.851-6.179-12.272-9.786-20.128-9.786zM512 768c-141.158 0-256-114.842-256-256 0-166.597 74.914-341.176 137.758-458.296 46.186-86.074 92.634-154.306 118.237-189.938 25.709 35.789 72.429 104.432 118.688 190.76 62.643 116.902 137.317 291.163 137.317 457.474 0 141.158-114.84 256-256 256zM512 358.4c-84.696 0-153.6 68.904-153.6 153.6s68.904 153.6 153.6 153.6 153.6-68.904 153.6-153.6-68.904-153.6-153.6-153.6zM512 614.4c-56.464 0-102.4-45.936-102.4-102.4s45.936-102.4 102.4-102.4c56.464 0 102.4 45.936 102.4 102.4s-45.936 102.4-102.4 102.4z" />
<glyph unicode="&#xe784;" glyph-name="road-sign" d="M961.4 558.901l-153.6 102.4c-4.205 2.803-9.146 4.299-14.2 4.299h-230.4v76.8c0 42.347-34.453 76.8-76.8 76.8h-102.4c-42.347 0-76.8-34.453-76.8-76.8v-76.8h-281.6c-14.138 0-25.6-11.462-25.6-25.6v-204.8c0-14.138 11.462-25.6 25.6-25.6h281.6v-51.2h-76.8c-5.054 0-9.995-1.496-14.2-4.299l-153.6-102.4c-7.122-4.747-11.4-12.741-11.4-21.301s4.278-16.554 11.4-21.299l153.6-102.4c4.205-2.805 9.146-4.301 14.2-4.301h76.8v-281.6c0-14.139 11.462-25.6 25.6-25.6h204.8c14.139 0 25.6 11.461 25.6 25.6v281.6h179.2c14.139 0 25.6 11.461 25.6 25.6v204.8c0 14.138-11.461 25.6-25.6 25.6h-179.2v51.2h230.4c5.054 0 9.995 1.496 14.2 4.299l153.6 102.4c7.122 4.749 11.4 12.741 11.4 21.301s-4.278 16.552-11.4 21.301zM358.4 742.4c0 14.115 11.485 25.6 25.6 25.6h102.4c14.115 0 25.6-11.485 25.6-25.6v-76.8h-153.6v76.8zM512-153.6h-153.6v256h153.6v-256zM716.8 153.6h-478.65l-115.2 76.8 115.2 76.8h478.65v-153.6zM512 358.4h-153.6v51.2h153.6v-51.2zM785.848 460.8h-734.648v153.6h734.648l115.2-76.8-115.2-76.8z" />
<glyph unicode="&#xe789;" glyph-name="calendar-full" d="M947.2 716.8h-128v25.6c0 14.138-11.461 25.6-25.6 25.6s-25.6-11.462-25.6-25.6v-25.6h-512v25.6c0 14.138-11.462 25.6-25.6 25.6s-25.6-11.462-25.6-25.6v-25.6h-128c-42.347 0-76.8-34.453-76.8-76.8v-716.8c0-42.349 34.453-76.8 76.8-76.8h870.4c42.349 0 76.8 34.451 76.8 76.8v716.8c0 42.347-34.451 76.8-76.8 76.8zM76.8 665.6h128v-76.8c0-14.138 11.462-25.6 25.6-25.6s25.6 11.462 25.6 25.6v76.8h512v-76.8c0-14.138 11.461-25.6 25.6-25.6s25.6 11.462 25.6 25.6v76.8h128c14.115 0 25.6-11.485 25.6-25.6v-128h-921.6v128c0 14.115 11.485 25.6 25.6 25.6zM947.2-102.4h-870.4c-14.115 0-25.6 11.485-25.6 25.6v537.6h921.6v-537.6c0-14.115-11.485-25.6-25.6-25.6zM384 307.2h-51.2c-14.138 0-25.6 11.461-25.6 25.6s11.462 25.6 25.6 25.6h51.2c14.138 0 25.6-11.461 25.6-25.6s-11.462-25.6-25.6-25.6zM537.6 307.2h-51.2c-14.138 0-25.6 11.461-25.6 25.6s11.462 25.6 25.6 25.6h51.2c14.139 0 25.6-11.461 25.6-25.6s-11.461-25.6-25.6-25.6zM691.2 307.2h-51.2c-14.139 0-25.6 11.461-25.6 25.6s11.461 25.6 25.6 25.6h51.2c14.139 0 25.6-11.461 25.6-25.6s-11.461-25.6-25.6-25.6zM844.8 307.2h-51.2c-14.139 0-25.6 11.461-25.6 25.6s11.461 25.6 25.6 25.6h51.2c14.139 0 25.6-11.461 25.6-25.6s-11.461-25.6-25.6-25.6zM230.4 204.8h-51.2c-14.138 0-25.6 11.461-25.6 25.6s11.462 25.6 25.6 25.6h51.2c14.138 0 25.6-11.461 25.6-25.6s-11.462-25.6-25.6-25.6zM384 204.8h-51.2c-14.138 0-25.6 11.461-25.6 25.6s11.462 25.6 25.6 25.6h51.2c14.138 0 25.6-11.461 25.6-25.6s-11.462-25.6-25.6-25.6zM537.6 204.8h-51.2c-14.138 0-25.6 11.461-25.6 25.6s11.462 25.6 25.6 25.6h51.2c14.139 0 25.6-11.461 25.6-25.6s-11.461-25.6-25.6-25.6zM691.2 204.8h-51.2c-14.139 0-25.6 11.461-25.6 25.6s11.461 25.6 25.6 25.6h51.2c14.139 0 25.6-11.461 25.6-25.6s-11.461-25.6-25.6-25.6zM844.8 204.8h-51.2c-14.139 0-25.6 11.461-25.6 25.6s11.461 25.6 25.6 25.6h51.2c14.139 0 25.6-11.461 25.6-25.6s-11.461-25.6-25.6-25.6zM230.4 102.4h-51.2c-14.138 0-25.6 11.461-25.6 25.6s11.462 25.6 25.6 25.6h51.2c14.138 0 25.6-11.461 25.6-25.6s-11.462-25.6-25.6-25.6zM384 102.4h-51.2c-14.138 0-25.6 11.461-25.6 25.6s11.462 25.6 25.6 25.6h51.2c14.138 0 25.6-11.461 25.6-25.6s-11.462-25.6-25.6-25.6zM537.6 102.4h-51.2c-14.138 0-25.6 11.461-25.6 25.6s11.462 25.6 25.6 25.6h51.2c14.139 0 25.6-11.461 25.6-25.6s-11.461-25.6-25.6-25.6zM691.2 102.4h-51.2c-14.139 0-25.6 11.461-25.6 25.6s11.461 25.6 25.6 25.6h51.2c14.139 0 25.6-11.461 25.6-25.6s-11.461-25.6-25.6-25.6zM844.8 102.4h-51.2c-14.139 0-25.6 11.461-25.6 25.6s11.461 25.6 25.6 25.6h51.2c14.139 0 25.6-11.461 25.6-25.6s-11.461-25.6-25.6-25.6zM230.4 0h-51.2c-14.138 0-25.6 11.461-25.6 25.6s11.462 25.6 25.6 25.6h51.2c14.138 0 25.6-11.461 25.6-25.6s-11.462-25.6-25.6-25.6zM384 0h-51.2c-14.138 0-25.6 11.461-25.6 25.6s11.462 25.6 25.6 25.6h51.2c14.138 0 25.6-11.461 25.6-25.6s-11.462-25.6-25.6-25.6zM537.6 0h-51.2c-14.138 0-25.6 11.461-25.6 25.6s11.462 25.6 25.6 25.6h51.2c14.139 0 25.6-11.461 25.6-25.6s-11.461-25.6-25.6-25.6zM691.2 0h-51.2c-14.139 0-25.6 11.461-25.6 25.6s11.461 25.6 25.6 25.6h51.2c14.139 0 25.6-11.461 25.6-25.6s-11.461-25.6-25.6-25.6zM844.8 0h-51.2c-14.139 0-25.6 11.461-25.6 25.6s11.461 25.6 25.6 25.6h51.2c14.139 0 25.6-11.461 25.6-25.6s-11.461-25.6-25.6-25.6z" />
<glyph unicode="&#xe78a;" glyph-name="calendar-insert" d="M947.2 716.8h-128v25.6c0 14.138-11.461 25.6-25.6 25.6s-25.6-11.462-25.6-25.6v-25.6h-179.2c-14.139 0-25.6-11.462-25.6-25.6s11.461-25.6 25.6-25.6h179.2v-76.8c0-14.138 11.461-25.6 25.6-25.6s25.6 11.462 25.6 25.6v76.8h128c14.115 0 25.6-11.485 25.6-25.6v-128h-281.6c-14.139 0-25.6-11.462-25.6-25.6s11.461-25.6 25.6-25.6h281.6v-537.6c0-14.115-11.485-25.6-25.6-25.6h-870.4c-14.115 0-25.6 11.485-25.6 25.6v537.6h230.4c14.138 0 25.6 11.462 25.6 25.6s-11.462 25.6-25.6 25.6h-230.4v128c0 14.115 11.485 25.6 25.6 25.6h128v-76.8c0-14.138 11.462-25.6 25.6-25.6s25.6 11.462 25.6 25.6v76.8h128c14.138 0 25.6 11.462 25.6 25.6s-11.462 25.6-25.6 25.6h-128v25.6c0 14.138-11.462 25.6-25.6 25.6s-25.6-11.462-25.6-25.6v-25.6h-128c-42.347 0-76.8-34.453-76.8-76.8v-716.8c0-42.349 34.453-76.8 76.8-76.8h870.4c42.349 0 76.8 34.451 76.8 76.8v716.8c0 42.347-34.451 76.8-76.8 76.8zM230.4 0h-51.2c-14.138 0-25.6 11.461-25.6 25.6s11.462 25.6 25.6 25.6h51.2c14.138 0 25.6-11.461 25.6-25.6s-11.462-25.6-25.6-25.6zM384 0h-51.2c-14.138 0-25.6 11.461-25.6 25.6s11.462 25.6 25.6 25.6h51.2c14.138 0 25.6-11.461 25.6-25.6s-11.462-25.6-25.6-25.6zM537.6 0h-51.2c-14.138 0-25.6 11.461-25.6 25.6s11.462 25.6 25.6 25.6h51.2c14.139 0 25.6-11.461 25.6-25.6s-11.461-25.6-25.6-25.6zM691.2 0h-51.2c-14.139 0-25.6 11.461-25.6 25.6s11.461 25.6 25.6 25.6h51.2c14.139 0 25.6-11.461 25.6-25.6s-11.461-25.6-25.6-25.6zM844.8 0h-51.2c-14.139 0-25.6 11.461-25.6 25.6s11.461 25.6 25.6 25.6h51.2c14.139 0 25.6-11.461 25.6-25.6s-11.461-25.6-25.6-25.6zM230.4 102.4h-51.2c-14.138 0-25.6 11.461-25.6 25.6s11.462 25.6 25.6 25.6h51.2c14.138 0 25.6-11.461 25.6-25.6s-11.462-25.6-25.6-25.6zM384 102.4h-51.2c-14.138 0-25.6 11.461-25.6 25.6s11.462 25.6 25.6 25.6h51.2c14.138 0 25.6-11.461 25.6-25.6s-11.462-25.6-25.6-25.6zM537.6 102.4h-51.2c-14.138 0-25.6 11.461-25.6 25.6s11.462 25.6 25.6 25.6h51.2c14.139 0 25.6-11.461 25.6-25.6s-11.461-25.6-25.6-25.6zM691.2 102.4h-51.2c-14.139 0-25.6 11.461-25.6 25.6s11.461 25.6 25.6 25.6h51.2c14.139 0 25.6-11.461 25.6-25.6s-11.461-25.6-25.6-25.6zM844.8 102.4h-51.2c-14.139 0-25.6 11.461-25.6 25.6s11.461 25.6 25.6 25.6h51.2c14.139 0 25.6-11.461 25.6-25.6s-11.461-25.6-25.6-25.6zM230.4 204.8h-51.2c-14.138 0-25.6 11.461-25.6 25.6s11.462 25.6 25.6 25.6h51.2c14.138 0 25.6-11.461 25.6-25.6s-11.462-25.6-25.6-25.6zM384 204.8h-51.2c-14.138 0-25.6 11.461-25.6 25.6s11.462 25.6 25.6 25.6h51.2c14.138 0 25.6-11.461 25.6-25.6s-11.462-25.6-25.6-25.6zM537.6 204.8h-51.2c-14.138 0-25.6 11.461-25.6 25.6s11.462 25.6 25.6 25.6h51.2c14.139 0 25.6-11.461 25.6-25.6s-11.461-25.6-25.6-25.6zM691.2 204.8h-51.2c-14.139 0-25.6 11.461-25.6 25.6s11.461 25.6 25.6 25.6h51.2c14.139 0 25.6-11.461 25.6-25.6s-11.461-25.6-25.6-25.6zM844.8 204.8h-51.2c-14.139 0-25.6 11.461-25.6 25.6s11.461 25.6 25.6 25.6h51.2c14.139 0 25.6-11.461 25.6-25.6s-11.461-25.6-25.6-25.6zM384 307.2h-51.2c-14.138 0-25.6 11.461-25.6 25.6s11.462 25.6 25.6 25.6h51.2c14.138 0 25.6-11.461 25.6-25.6s-11.462-25.6-25.6-25.6zM537.6 307.2h-51.2c-14.138 0-25.6 11.461-25.6 25.6s11.462 25.6 25.6 25.6h51.2c14.139 0 25.6-11.461 25.6-25.6s-11.461-25.6-25.6-25.6zM691.2 307.2h-51.2c-14.139 0-25.6 11.461-25.6 25.6s11.461 25.6 25.6 25.6h51.2c14.139 0 25.6-11.461 25.6-25.6s-11.461-25.6-25.6-25.6zM844.8 307.2h-51.2c-14.139 0-25.6 11.461-25.6 25.6s11.461 25.6 25.6 25.6h51.2c14.139 0 25.6-11.461 25.6-25.6s-11.461-25.6-25.6-25.6zM606.901 530.102c-9.997 9.997-26.206 9.997-36.203 0l-58.698-58.699v219.797c0 14.138-11.462 25.6-25.6 25.6s-25.6-11.462-25.6-25.6v-219.797l-58.698 58.699c-9.998 9.997-26.206 9.997-36.205 0-9.997-9.998-9.997-26.206 0-36.205l102.4-102.4c5-4.998 11.55-7.498 18.102-7.498s13.102 2.499 18.102 7.498l102.4 102.4c9.997 9.998 9.997 26.206-0.002 36.205z" />
<glyph unicode="&#xe7ad;" glyph-name="laptop" d="M179.2 102.4h665.6c42.349 0 76.8 34.451 76.8 76.8v409.6c0 42.347-34.451 76.8-76.8 76.8h-665.6c-42.347 0-76.8-34.453-76.8-76.8v-409.6c0-42.349 34.453-76.8 76.8-76.8zM153.6 588.8c0 14.115 11.485 25.6 25.6 25.6h665.6c14.115 0 25.6-11.485 25.6-25.6v-409.6c0-14.115-11.485-25.6-25.6-25.6h-665.6c-14.115 0-25.6 11.485-25.6 25.6v409.6zM998.4 51.2h-972.8c-14.138 0-25.6-11.461-25.6-25.6v-51.2c0-42.349 34.453-76.8 76.8-76.8h870.4c42.349 0 76.8 34.451 76.8 76.8v51.2c0 14.139-11.461 25.6-25.6 25.6zM947.2-51.2h-870.4c-14.115 0-25.6 11.485-25.6 25.6v25.6h921.6v-25.6c0-14.115-11.485-25.6-25.6-25.6z" />
<glyph unicode="&#xe886;" glyph-name="network" d="M830.336 625.536c-91.869 91.869-214.014 142.464-343.936 142.464-129.923 0-252.067-50.595-343.936-142.464s-142.464-214.013-142.464-343.936c0-129.922 50.595-252.067 142.464-343.936 91.869-91.87 214.014-142.464 343.936-142.464s252.067 50.594 343.936 142.464c91.87 91.869 142.464 214.014 142.464 343.936s-50.594 252.067-142.464 343.936zM767.614 307.2c-1.614 54.861-8.397 108.077-19.944 157.834 18.349-7.445 35.786-15.712 52.131-24.792 67.035-37.242 108.341-83.742 119.011-133.042h-151.198zM716.387 307.2h-204.387v204.387c62.846-1.954 123.118-11.086 177.706-26.682 15.595-54.587 24.728-114.859 26.682-177.706zM512 562.814v151.2c49.299-10.672 95.798-51.976 133.040-119.011 9.082-16.346 17.349-33.784 24.792-52.131-49.755 11.546-102.971 18.328-157.832 19.942zM460.8 714.013v-151.2c-54.861-1.613-108.077-8.397-157.834-19.942 7.445 18.347 15.712 35.786 24.792 52.131 37.242 67.035 83.742 108.341 133.042 119.011zM460.8 511.587v-204.387h-204.387c1.954 62.846 11.086 123.118 26.682 177.706 54.587 15.597 114.859 24.728 177.706 26.682zM205.186 307.2h-151.2c10.67 49.299 51.976 95.8 119.011 133.042 16.346 9.080 33.784 17.347 52.131 24.792-11.546-49.757-18.328-102.973-19.942-157.834zM205.186 256c1.613-54.861 8.397-108.077 19.942-157.834-18.347 7.443-35.786 15.71-52.131 24.792-67.034 37.243-108.338 83.742-119.010 133.042h151.198zM256.413 256h204.387v-204.387c-62.846 1.954-123.118 11.086-177.706 26.682-15.597 54.587-24.728 114.861-26.682 177.706zM460.8 0.386v-151.198c-49.299 10.67-95.8 51.973-133.042 119.010-9.082 16.346-17.349 33.784-24.794 52.133 49.758-11.547 102.974-18.33 157.835-19.944zM512-150.813v151.198c54.861 1.614 108.077 8.397 157.834 19.944-7.443-18.349-15.71-35.787-24.792-52.133-37.243-67.035-83.742-108.339-133.042-119.010zM512 51.613v204.387h204.387c-1.954-62.845-11.086-123.118-26.682-177.706-54.587-15.595-114.859-24.728-177.706-26.682zM767.614 256h151.198c-10.67-49.299-51.974-95.798-119.011-133.040-16.346-9.082-33.782-17.349-52.13-24.792 11.546 49.755 18.328 102.971 19.942 157.832zM892.512 438.005c-19.362 16.886-42.019 32.645-67.845 46.994-28.654 15.92-60.242 29.574-94.053 40.818-11.242 33.81-24.899 65.397-40.818 94.051-14.349 25.827-30.106 48.485-46.994 67.846 114.358-44.194 205.517-135.352 249.709-249.709zM329.995 687.712c-16.886-19.36-32.645-42.019-46.994-67.845-15.92-28.654-29.574-60.242-40.818-94.051-33.81-11.243-65.397-24.899-94.051-40.818-25.826-14.347-48.485-30.107-67.845-46.994 44.192 114.357 135.35 205.515 249.707 249.707zM80.286 125.197c19.362-16.888 42.019-32.645 67.846-46.994 28.654-15.918 60.242-29.574 94.051-40.818 11.243-33.811 24.899-65.398 40.818-94.053 14.347-25.827 30.107-48.485 46.994-67.845-114.357 44.192-205.515 135.35-249.709 249.709zM642.803-124.512c16.888 19.36 32.645 42.019 46.994 67.845 15.92 28.654 29.574 60.242 40.819 94.053 33.81 11.242 65.397 24.899 94.051 40.818 25.827 14.349 48.486 30.106 67.845 46.994-44.192-114.358-135.35-205.517-249.709-249.709z" />
<glyph unicode="&#xe8ae;" glyph-name="bullhorn" d="M992.694 660.518c-29.611 88.835-68.928 107.482-96.694 107.482-0.584 0-1.176-0.011-1.771-0.029-28.322-0.598-78.627-15.33-153.997-37.41-157.898-46.258-396.514-116.162-637.832-116.162-58.378 0-102.4-77.038-102.4-179.2s44.022-179.2 102.4-179.2c18.891 0 37.765-0.429 56.584-1.24l85.306-339.347c9.73-38.699 48.608-69.013 88.51-69.013h67.2c22.17 0 40.986 9.23 51.622 25.322 10.635 16.091 11.75 37.019 3.061 57.416l-131.926 309.634c160.552-23.672 308.307-66.95 417.474-98.931 75.37-22.082 125.675-36.813 153.997-37.411 0.595-0.018 1.187-0.029 1.771-0.029 27.766 0 67.083 18.646 96.694 107.482 20.19 60.563 31.307 140.582 31.307 225.318 0 84.734-11.117 164.755-31.306 225.318zM819.2 435.2c0 26.266 1.122 51.965 3.285 76.616 26.291-2.642 47.915-36.642 47.915-76.616s-21.624-73.974-47.915-76.616c-2.163 24.651-3.285 50.35-3.285 76.616zM51.2 435.2c0 78.136 30.325 128 51.2 128 58.117 0 115.915 3.888 172.422 10.445-12.142-38.794-18.822-86.912-18.822-138.445 0-51.549 6.68-99.658 18.821-138.443-56.507 6.555-114.306 10.443-172.421 10.443-20.875 0-51.2 49.864-51.2 128zM407.579-90.931c2.099-4.928 1.93-8.208 1.328-9.117s-3.55-2.352-8.907-2.352h-67.2c-16.349 0-34.869 14.44-38.856 30.296l-81.33 323.53c17.157-1.379 34.235-3.046 51.213-4.966l143.752-337.39zM332.24 289.149c-15.587 35.173-25.040 89.509-25.040 146.051 0 57.422 9.238 110.73 25.011 146.046 163.054 24.2 312.094 67.861 422.414 100.179 21.243 6.224 41.526 12.165 59.938 17.344-5.285-11.019-10.402-23.686-15.256-38.253-20.19-60.562-31.307-140.582-31.307-225.317s11.117-164.755 31.306-225.318c4.854-14.566 9.971-27.234 15.256-38.253-18.411 5.181-38.694 11.122-59.938 17.346-110.314 32.317-259.341 75.974-422.384 100.174zM944.122 226.072c-19.107-57.325-39.832-72.472-48.122-72.472s-29.014 15.147-48.122 72.472c-8.024 24.069-14.48 51.678-19.222 81.701 24.888 2.87 48.298 16.95 65.33 39.658 17.808 23.744 27.614 54.914 27.614 87.77 0 32.854-9.806 64.026-27.614 87.768-17.034 22.709-40.442 36.789-65.33 39.659 4.742 30.024 11.198 57.632 19.222 81.699 19.109 57.326 39.832 72.474 48.122 72.474s29.013-15.147 48.122-72.472c18.494-55.482 28.678-129.75 28.678-209.128s-10.184-153.646-28.678-209.128z" />
<glyph unicode="&#xe8b7;" glyph-name="wifi" d="M537.597-0.003c-42.349 0-76.803 34.453-76.803 76.803s34.454 76.803 76.803 76.803c42.35 0 76.803-34.453 76.803-76.803s-34.453-76.803-76.803-76.803zM537.597 102.403c-14.117 0-25.603-11.486-25.603-25.603s11.486-25.603 25.603-25.603 25.603 11.486 25.603 25.603-11.486 25.603-25.603 25.603zM361.125 155.23c-4.427 0-8.912 1.15-13 3.566-12.171 7.192-16.208 22.891-9.016 35.062 20.019 33.88 48.568 62.266 82.558 82.091 35.056 20.446 75.142 31.253 115.931 31.253s80.875-10.806 115.93-31.251c33.99-19.826 62.539-48.211 82.558-82.091 7.194-12.171 3.157-27.87-9.016-35.062-12.173-7.195-27.87-3.16-35.062 9.016-32.144 54.397-91.31 88.189-154.41 88.189s-122.266-33.792-154.408-88.19c-4.779-8.086-13.31-12.582-22.066-12.582zM824.667 265.838c-7.79 0-15.482 3.541-20.51 10.254-63.547 84.846-160.702 133.509-266.56 133.509s-203.014-48.661-266.56-133.507c-8.478-11.314-24.523-13.616-35.837-5.144-11.317 8.477-13.619 24.52-5.144 35.837 35.021 46.758 80.952 85.504 132.829 112.053 54.41 27.843 113.192 41.962 174.712 41.962 61.522 0 120.302-14.118 174.712-41.963 51.877-26.547 97.808-65.296 132.829-112.053 8.475-11.317 6.171-27.362-5.144-35.837-4.603-3.446-9.987-5.11-15.326-5.11zM934.056 375.232c-7.414-0.002-14.766 3.203-19.829 9.387-92.874 113.493-230.152 178.584-376.632 178.584-146.478 0-283.754-65.091-376.629-178.581-8.957-10.942-25.083-12.552-36.024-3.6-10.942 8.955-12.554 25.083-3.6 36.026 102.637 125.422 254.355 197.357 416.251 197.357 161.898 0 313.618-71.934 416.256-197.36 8.954-10.942 7.342-27.070-3.6-36.026-4.752-3.893-10.491-5.787-16.194-5.787z" />
<glyph unicode="&#xe8cb;" glyph-name="mic" d="M486.4 102.4c-98.811 0-179.2 80.389-179.2 179.2v307.2c0 98.811 80.389 179.2 179.2 179.2s179.2-80.389 179.2-179.2v-307.2c0-98.811-80.389-179.2-179.2-179.2zM486.4 716.8c-70.579 0-128-57.421-128-128v-307.2c0-70.579 57.421-128 128-128s128 57.421 128 128v307.2c0 70.579-57.421 128-128 128zM819.2 281.6c0 14.139-11.461 25.6-25.6 25.6s-25.6-11.461-25.6-25.6c0-155.275-126.325-281.6-281.6-281.6s-281.6 126.325-281.6 281.6c0 14.139-11.462 25.6-25.6 25.6s-25.6-11.461-25.6-25.6c0-174.894 135.608-318.71 307.2-331.826v-103.374h-76.8c-14.138 0-25.6-11.461-25.6-25.6s11.462-25.6 25.6-25.6h204.8c14.139 0 25.6 11.461 25.6 25.6s-11.461 25.6-25.6 25.6h-76.8v103.374c171.59 13.115 307.2 156.931 307.2 331.826z" />
<glyph unicode="&#xe8e8;" glyph-name="clock3" d="M830.338 625.536c-91.869 91.869-214.016 142.464-343.938 142.464s-252.067-50.595-343.936-142.464c-91.869-91.869-142.464-214.014-142.464-343.936s50.595-252.069 142.464-343.938 214.014-142.462 343.936-142.462 252.069 50.594 343.938 142.462 142.462 214.016 142.462 343.938-50.594 252.067-142.462 343.936zM486.4-153.6c-239.97 0-435.2 195.23-435.2 435.2s195.23 435.2 435.2 435.2 435.2-195.23 435.2-435.2-195.23-435.2-435.2-435.2zM774.614 448c-7.070 12.245-22.728 16.435-34.97 9.37l-251.92-145.445-196.342 137.482c-11.582 8.11-27.546 5.294-35.654-6.286s-5.294-27.544 6.286-35.654l209.702-146.835c0.051-0.035 0.106-0.066 0.158-0.101 0.429-0.296 0.866-0.574 1.31-0.843 0.118-0.072 0.237-0.147 0.357-0.216 0.446-0.259 0.901-0.502 1.363-0.734 0.11-0.056 0.219-0.118 0.33-0.171 0.518-0.251 1.046-0.485 1.581-0.701 0.315-0.126 0.634-0.234 0.95-0.35 0.234-0.085 0.467-0.17 0.702-0.246 0.346-0.112 0.691-0.213 1.038-0.309 0.219-0.062 0.438-0.122 0.659-0.178 0.347-0.088 0.696-0.166 1.045-0.238 0.237-0.048 0.477-0.093 0.715-0.136 0.331-0.058 0.661-0.115 0.992-0.16 0.299-0.042 0.6-0.072 0.901-0.101 0.274-0.029 0.546-0.061 0.819-0.080 0.594-0.040 1.189-0.066 1.786-0.066 0.971 0 1.944 0.062 2.917 0.174 0.024 0.003 0.050 0.005 0.074 0.006 0.946 0.112 1.888 0.285 2.824 0.502 0.069 0.018 0.139 0.032 0.208 0.048 0.883 0.214 1.758 0.48 2.626 0.794 0.128 0.045 0.253 0.094 0.379 0.142 0.813 0.307 1.619 0.653 2.41 1.051 0.162 0.080 0.317 0.17 0.477 0.254 0.286 0.15 0.576 0.294 0.859 0.458l266.043 153.6c12.248 7.069 16.443 22.725 9.374 34.97z" />
<glyph unicode="&#xe908;" glyph-name="exit-right2" d="M51.2-128v819.2c0 42.347 34.451 76.8 76.8 76.8h51.2c42.349 0 76.8-34.453 76.8-76.8v-307.2c0-14.138-11.461-25.6-25.6-25.6s-25.6 11.462-25.6 25.6v307.2c0 14.115-11.485 25.6-25.6 25.6h-51.2c-14.115 0-25.6-11.485-25.6-25.6v-819.2c0-14.115 11.485-25.6 25.6-25.6h51.2c14.115 0 25.6 11.485 25.6 25.6v307.2c0 14.139 11.461 25.6 25.6 25.6s25.6-11.461 25.6-25.6v-307.2c0-42.349-34.451-76.8-76.8-76.8h-51.2c-42.349 0-76.8 34.451-76.8 76.8zM698.699 7.499c-9.997 9.997-9.997 26.206 0 36.203l212.296 212.298h-731.795c-14.138 0-25.6 11.462-25.6 25.6s11.462 25.6 25.6 25.6h731.795l-212.296 212.298c-9.997 9.998-9.997 26.206 0 36.205 9.997 9.997 26.206 9.997 36.203 0l256-256c4.998-5 7.498-11.55 7.498-18.102s-2.499-13.102-7.499-18.102l-256-256c-9.997-9.997-26.205-9.997-36.202 0.002z" />
<glyph unicode="&#xe917;" glyph-name="link2" d="M546.917 153.688c-48.275 0-96.55 18.376-133.301 55.128-9.998 9.997-9.998 26.206 0 36.203s26.205 9.997 36.203 0c53.539-53.541 140.656-53.541 194.197 0l186.166 186.166c53.539 53.539 53.539 140.656 0 194.197-53.541 53.539-140.656 53.538-194.197 0l-157.082-157.083c-9.998-9.997-26.206-9.997-36.203 0-9.998 9.998-9.998 26.206 0 36.205l157.083 157.083c73.502 73.501 193.101 73.501 266.603 0s73.502-193.101 0-266.603l-186.168-186.168c-36.752-36.752-85.027-55.128-133.302-55.128zM239.717-153.512c-48.275 0-96.55 18.376-133.302 55.128-73.501 73.502-73.501 193.101 0 266.603l186.166 186.166c73.501 73.501 193.101 73.501 266.603 0 9.998-9.998 9.998-26.206 0-36.203-9.997-9.998-26.206-9.998-36.203 0-53.541 53.541-140.656 53.541-194.197 0l-186.165-186.166c-53.539-53.541-53.539-140.656 0-194.197s140.656-53.541 194.195 0l157.083 157.083c9.997 9.997 26.206 9.997 36.203 0 9.998-9.997 9.998-26.206 0-36.203l-157.083-157.083c-36.75-36.752-85.026-55.128-133.301-55.128z" />
<glyph unicode="&#xe918;" glyph-name="unlink2" d="M691.2 230.4c-6.552 0-13.102 2.499-18.101 7.499-9.998 9.997-9.998 26.206 0 36.203l157.083 157.083c25.936 25.936 40.221 60.421 40.221 97.099s-14.285 71.162-40.221 97.098c-53.539 53.538-140.654 53.541-194.197 0l-157.083-157.082c-9.997-9.998-26.206-9.998-36.203 0-9.998 9.997-9.998 26.206 0 36.203l157.083 157.083c73.504 73.502 193.104 73.499 266.603 0 35.608-35.606 55.218-82.947 55.218-133.302s-19.61-97.696-55.218-133.302l-157.083-157.082c-5-5.002-11.55-7.501-18.102-7.501zM239.717-153.602c-50.355 0-97.696 19.61-133.302 55.218-73.501 73.501-73.501 193.101 0 266.603l157.083 157.083c9.997 9.998 26.206 9.998 36.203 0 9.998-9.997 9.998-26.206 0-36.203l-157.082-157.083c-53.538-53.541-53.538-140.658 0-194.197 25.936-25.936 60.419-40.221 97.098-40.221s71.162 14.285 97.098 40.221l157.083 157.083c9.997 9.997 26.206 9.997 36.203 0 9.998-9.997 9.998-26.206 0-36.203l-157.083-157.083c-35.605-35.608-82.946-55.218-133.301-55.218zM281.6 460.8c-6.552 0-13.102 2.499-18.101 7.499l-102.4 102.4c-9.998 9.997-9.998 26.206 0 36.203 9.997 9.998 26.206 9.998 36.203 0l102.4-102.4c9.998-9.997 9.998-26.206 0-36.203-5-5-11.55-7.499-18.102-7.499zM384 512c-14.138 0-25.6 11.462-25.6 25.6v153.6c0 14.138 11.462 25.6 25.6 25.6s25.6-11.462 25.6-25.6v-153.6c0-14.138-11.462-25.6-25.6-25.6zM230.4 358.4h-153.6c-14.138 0-25.6 11.462-25.6 25.6s11.462 25.6 25.6 25.6h153.6c14.138 0 25.6-11.462 25.6-25.6s-11.462-25.6-25.6-25.6zM793.6-51.2c-6.552 0-13.102 2.499-18.101 7.499l-102.4 102.4c-9.998 9.997-9.998 26.206 0 36.203 9.997 9.997 26.206 9.997 36.203 0l102.4-102.4c9.998-9.997 9.998-26.206 0-36.203-5-5-11.55-7.499-18.102-7.499zM896.002 153.6h-153.602c-14.139 0-25.6 11.461-25.6 25.6s11.461 25.6 25.6 25.6h153.602c14.139 0 25.6-11.461 25.6-25.6s-11.461-25.6-25.6-25.6zM588.8-153.6c-14.139 0-25.6 11.461-25.6 25.6v153.6c0 14.139 11.461 25.6 25.6 25.6s25.6-11.461 25.6-25.6v-153.6c0-14.139-11.461-25.6-25.6-25.6z" />
<glyph unicode="&#xe925;" glyph-name="zoom-in" d="M966.070-161.901l-304.302 331.965c68.573 71.754 106.232 165.549 106.232 265.136 0 102.57-39.942 199-112.47 271.53s-168.96 112.47-271.53 112.47-199-39.942-271.53-112.47-112.47-168.96-112.47-271.53 39.942-199.002 112.47-271.53 168.96-112.47 271.53-112.47c88.362 0 172.152 29.667 240.043 84.248l304.285-331.947c5.050-5.507 11.954-8.301 18.878-8.301 6.179 0 12.378 2.226 17.293 6.728 10.421 9.555 11.126 25.749 1.571 36.171zM51.2 435.2c0 183.506 149.294 332.8 332.8 332.8s332.8-149.294 332.8-332.8-149.294-332.8-332.8-332.8-332.8 149.294-332.8 332.8zM588.8 460.8h-179.2v179.2c0 14.138-11.462 25.6-25.6 25.6s-25.6-11.462-25.6-25.6v-179.2h-179.2c-14.138 0-25.6-11.462-25.6-25.6s11.462-25.6 25.6-25.6h179.2v-179.2c0-14.139 11.462-25.6 25.6-25.6s25.6 11.461 25.6 25.6v179.2h179.2c14.139 0 25.6 11.462 25.6 25.6s-11.461 25.6-25.6 25.6z" />
<glyph unicode="&#xe926;" glyph-name="zoom-out" d="M966.070-161.901l-304.302 331.965c68.573 71.754 106.232 165.549 106.232 265.136 0 102.57-39.942 199-112.47 271.53s-168.96 112.47-271.53 112.47-199-39.942-271.53-112.47-112.47-168.96-112.47-271.53 39.942-199.002 112.47-271.53 168.96-112.47 271.53-112.47c88.362 0 172.152 29.667 240.043 84.248l304.285-331.947c5.050-5.507 11.954-8.301 18.878-8.301 6.179 0 12.378 2.226 17.293 6.728 10.421 9.555 11.126 25.749 1.571 36.171zM51.2 435.2c0 183.506 149.294 332.8 332.8 332.8s332.8-149.294 332.8-332.8-149.294-332.8-332.8-332.8-332.8 149.294-332.8 332.8zM588.8 409.6h-409.6c-14.138 0-25.6 11.462-25.6 25.6s11.462 25.6 25.6 25.6h409.6c14.139 0 25.6-11.462 25.6-25.6s-11.461-25.6-25.6-25.6z" />
<glyph unicode="&#xe936;" glyph-name="plus" d="M947.2 307.2h-435.2v435.2c0 14.138-11.462 25.6-25.6 25.6s-25.6-11.462-25.6-25.6v-435.2h-435.2c-14.138 0-25.6-11.461-25.6-25.6s11.462-25.6 25.6-25.6h435.2v-435.2c0-14.139 11.462-25.6 25.6-25.6s25.6 11.461 25.6 25.6v435.2h435.2c14.139 0 25.6 11.461 25.6 25.6s-11.461 25.6-25.6 25.6z" />
<glyph unicode="&#xe937;" glyph-name="minus" d="M947.2 256h-921.6c-14.138 0-25.6 11.461-25.6 25.6s11.462 25.6 25.6 25.6h921.6c14.139 0 25.6-11.461 25.6-25.6s-11.461-25.6-25.6-25.6z" />
<glyph unicode="&#xe93b;" glyph-name="chevron-left" d="M716.8-204.8c6.552 0 13.102 2.499 18.101 7.499 9.998 9.997 9.998 26.206 0 36.203l-442.698 442.698 442.698 442.699c9.998 9.997 9.998 26.206 0 36.203s-26.206 9.998-36.203 0l-460.8-460.8c-9.998-9.997-9.998-26.206 0-36.203l460.8-460.8c5-5 11.55-7.499 18.102-7.499z" />
<glyph unicode="&#xe93c;" glyph-name="chevron-right" d="M256-204.8c-6.552 0-13.102 2.499-18.101 7.499-9.998 9.997-9.998 26.206 0 36.203l442.698 442.698-442.698 442.699c-9.998 9.997-9.998 26.206 0 36.203s26.206 9.998 36.203 0l460.8-460.8c9.998-9.997 9.998-26.206 0-36.203l-460.8-460.8c-5-5-11.55-7.499-18.102-7.499z" />
<glyph unicode="&#xe9d1;" glyph-name="pointer-right2" d="M179.2 51.2c-14.138 0-25.6 11.462-25.6 25.6s11.462 25.6 25.6 25.6c14.138 0 25.6-11.462 25.6-25.6s-11.462-25.6-25.6-25.6zM537.6-51.2c42.347 0 76.8 34.451 76.8 76.8 0 9.995-1.939 19.541-5.429 28.306 32.59 8.883 56.629 38.726 56.629 74.094 0 9.995-1.939 19.541-5.429 28.306 32.59 8.885 56.629 38.728 56.629 74.094 0 8.971-1.547 17.589-4.387 25.6h132.387c42.347 0 76.8 34.453 76.8 76.8s-34.453 76.8-76.8 76.8h-305.483l56.976 71.968c12.339 15.587 18.498 35.56 17.358 56.232-1.149 20.723-9.512 39.866-23.549 53.902-29.768 29.768-78.451 29.83-108.525 0.139l-180.371-178.106c-11.643 27.624-38.997 47.064-70.806 47.064h-102.4c-42.349 0-76.8-34.453-76.8-76.8v-358.4c0-42.349 34.451-76.8 76.8-76.8h102.4c27.699 0 52.018 14.744 65.53 36.794 32.579-16.768 92.078-36.794 190.47-36.794h51.2zM553.899 555.499c10.589-10.592 11.643-30.288 2.251-42.15l-89.822-113.458c-6.093-7.698-7.25-18.2-2.973-27.038 4.275-8.838 13.227-14.453 23.045-14.453h358.4c14.115 0 25.6-11.485 25.6-25.6s-11.485-25.6-25.6-25.6h-256c-14.138 0-25.6-11.462-25.6-25.6s11.462-25.6 25.6-25.6h51.2c14.115 0 25.6-11.485 25.6-25.6s-11.485-25.6-25.6-25.6h-51.2c-14.138 0-25.6-11.461-25.6-25.6s11.462-25.6 25.6-25.6c14.115 0 25.6-11.485 25.6-25.6s-11.485-25.6-25.6-25.6h-51.2c-14.139 0-25.6-11.461-25.6-25.6s11.461-25.6 25.6-25.6c14.115 0 25.6-11.485 25.6-25.6s-11.485-25.6-25.6-25.6h-51.2c-107.634 0-160.736 26.406-179.2 38.31v309.389l210.352 207.709c9.938 9.813 26.582 9.854 36.347 0.091zM128 0c-14.115 0-25.6 11.485-25.6 25.6v358.4c0 14.115 11.485 25.6 25.6 25.6h102.4c14.115 0 25.6-11.485 25.6-25.6v-358.4c0-14.115-11.485-25.6-25.6-25.6h-102.4z" />
<glyph unicode="&#xef24;" glyph-name="skype" d="M425.6 794.6c-1.6 1-3.4 1.8-5 2.6-1.8-0.4-3.4-0.6-5.2-1l10.2-1.6zM36.8 411c-0.4-1.8-0.6-3.6-0.8-5.2 1-1.6 1.6-3.2 2.6-4.8l-1.8 10zM986.8 229.4c0.4 1.8 0.6 3.6 1 5.4-1 1.6-1.6 3.2-2.6 4.8l1.6-10.2zM592-151c1.6-1 3.4-1.8 5-2.6 1.8 0.4 3.6 0.6 5.4 0.8l-10.4 1.8zM987.8 234.8c-0.4-1.8-0.6-3.6-1-5.4l-1.8 10.4c1-1.8 1.8-3.4 2.8-5 5.2 28.8 8 58.2 8 87.6 0 65.2-12.8 128.6-38 188.2-24.4 57.6-59.2 109.4-103.6 153.8s-96.2 79.2-153.6 103.6c-59.6 25.2-123 38-188.2 38-30.8 0-61.6-2.8-91.6-8.6 0 0-0.2 0-0.2 0 1.6-0.8 3.4-1.6 5-2.6l-10.2 1.6c1.8 0.4 3.4 0.6 5.2 1-41.2 21.8-87.4 33.6-134.2 33.6-76.4 0-148.4-29.8-202.4-83.8s-83.8-126-83.8-202.4c0-48.6 12.6-96.6 36-138.8 0.4 1.8 0.6 3.6 0.8 5.2l1.8-10.2c-1 1.6-1.8 3.2-2.6 4.8-4.8-27.4-7.2-55.4-7.2-83.4 0-65.2 12.8-128.6 38-188.2 24.4-57.6 59.2-109.2 103.6-153.6s96.2-79.2 153.8-103.6c59.6-25.2 123-38 188.2-38 28.4 0 56.8 2.6 84.6 7.6-1.6 1-3.2 1.8-5 2.6l10.4-1.8c-1.8-0.4-3.6-0.6-5.4-0.8 42.8-24.2 91.4-37.2 140.8-37.2 76.4 0 148.4 29.8 202.4 83.8s83.8 126 83.8 202.4c-0.2 48.6-12.8 96.6-36.4 139.2zM514.2 26.2c-171.8 0-248.6 84.4-248.6 147.8 0 32.4 24 55.2 57 55.2 73.6 0 54.4-105.6 191.6-105.6 70.2 0 109 38.2 109 77.2 0 23.4-11.6 49.4-57.8 60.8l-152.8 38.2c-123 30.8-145.4 97.4-145.4 160 0 129.8 122.2 178.6 237 178.6 105.8 0 230.4-58.4 230.4-136.4 0-33.4-29-52.8-62-52.8-62.8 0-51.2 86.8-177.6 86.8-62.8 0-97.4-28.4-97.4-69s49.6-53.6 92.6-63.4l113.2-25.2c123.8-27.6 155.2-100 155.2-168 0-105.4-81-184.2-244.4-184.2z" />
</font>
</defs>
</svg>
