<svg xmlns="http://www.w3.org/2000/svg" width="305" height="69" viewBox="0 0 80.698 18.256">
  <path d="M18.609 2.7h2.578v.619h-1.842v.854h1.693v.598h-1.693v.942h1.862v.624h-2.598zm4.275 1.458a.538.538 0 0 0-.273.066.574.574 0 0 0-.192.184.842.842 0 0 0-.113.277c-.023.105-.035.22-.035.342 0 .116.013.225.04.328a.91.91 0 0 0 .118.268.573.573 0 0 0 .192.182.512.512 0 0 0 .263.067.55.55 0 0 0 .277-.067.553.553 0 0 0 .194-.184.84.84 0 0 0 .113-.274 1.524 1.524 0 0 0-.003-.67.853.853 0 0 0-.115-.271.537.537 0 0 0-.465-.248m.777 2.179a4.03 4.03 0 0 1-.077-.205 5.518 5.518 0 0 0-.077-.204h-.005a.877.877 0 0 1-.34.355.948.948 0 0 1-.468.116.956.956 0 0 1-.81-.397 1.304 1.304 0 0 1-.203-.44 2.165 2.165 0 0 1-.066-.55c0-.194.023-.375.07-.542a1.35 1.35 0 0 1 .201-.435c.089-.123.2-.22.332-.29a.986.986 0 0 1 .466-.104.98.98 0 0 1 .434.097.838.838 0 0 1 .338.312l.003-.675.002-.676h.726v3.638zm2.976-.174a2.349 2.349 0 0 0-.102-.174.795.795 0 0 1-.34.312 1.087 1.087 0 0 1-.468.098c-.198 0-.351-.031-.46-.093a.721.721 0 0 1-.266-.26.977.977 0 0 1-.126-.374 3.603 3.603 0 0 1-.028-.476V3.702h.624v1.57c0 .202.039.352.116.451a.392.392 0 0 0 .33.149.7.7 0 0 0 .252-.042.389.389 0 0 0 .182-.138.71.71 0 0 0 .11-.258c.026-.107.038-.24.038-.397V3.702h.68v2.635h-.444a4.193 4.193 0 0 1-.098-.174m3.55-.818c-.045.34-.17.606-.376.795-.206.19-.477.284-.81.284-.192 0-.364-.033-.517-.1a1.111 1.111 0 0 1-.394-.284 1.27 1.27 0 0 1-.25-.437 1.716 1.716 0 0 1-.088-.56c0-.205.03-.394.087-.568a1.34 1.34 0 0 1 .248-.45c.108-.127.239-.225.394-.295.155-.07.332-.104.53-.104.153 0 .298.02.434.06a.974.974 0 0 1 .608.508c.066.126.105.274.118.445h-.644a.583.583 0 0 0-.16-.356.471.471 0 0 0-.341-.125.508.508 0 0 0-.455.258.931.931 0 0 0-.108.281 1.571 1.571 0 0 0 0 .673c.024.103.06.192.108.269a.574.574 0 0 0 .179.184.459.459 0 0 0 .255.069.47.47 0 0 0 .361-.146.75.75 0 0 0 .177-.401zm1.675-.2a1.797 1.797 0 0 0-.335.067.618.618 0 0 0-.24.13c-.062.056-.093.14-.093.248 0 .12.041.205.123.256a.558.558 0 0 0 .302.077.782.782 0 0 0 .304-.051.47.47 0 0 0 .287-.343 1.12 1.12 0 0 0 .028-.25v-.185c-.126.02-.252.037-.376.051m.432.88a.844.844 0 0 1-.389.297 1.48 1.48 0 0 1-.854.025.843.843 0 0 1-.292-.15.719.719 0 0 1-.265-.581.72.72 0 0 1 .117-.423.807.807 0 0 1 .343-.265 2.14 2.14 0 0 1 .552-.149c.218-.032.466-.059.742-.08-.004-.214-.038-.368-.105-.46-.067-.092-.187-.138-.36-.138a.563.563 0 0 0-.35.1c-.088.067-.138.175-.152.325h-.68a.898.898 0 0 1 .11-.422.809.809 0 0 1 .26-.276c.108-.07.233-.12.374-.151.142-.03.29-.046.443-.046.221 0 .403.025.544.076a.731.731 0 0 1 .335.233.93.93 0 0 1 .172.394c.032.159.048.344.048.555v1.448h-.49zm2.122-2.323h.527v.502h-.527V5.4c0 .092.006.165.016.22.01.054.027.097.05.128a.18.18 0 0 0 .098.061 1.021 1.021 0 0 0 .363-.005v.537a2.476 2.476 0 0 1-.42.031c-.129 0-.242-.012-.339-.036a.573.573 0 0 1-.246-.123.516.516 0 0 1-.148-.238 1.263 1.263 0 0 1-.049-.38V4.203h-.44v-.502h.44v-.434l.675-.297zm1.074 0h.68v2.635h-.68zm.68-.378h-.68V2.7h.68zm1.228 1.693c0 .26.053.47.159.632a.515.515 0 0 0 .46.243c.204 0 .361-.08.47-.24.11-.16.164-.369.164-.625s-.055-.465-.164-.629a.531.531 0 0 0-.47-.245.534.534 0 0 0-.458.242.858.858 0 0 0-.12.274 1.408 1.408 0 0 0-.041.348m-.695.01c0-.208.03-.398.091-.57.062-.172.15-.32.266-.443.117-.123.255-.218.417-.286.162-.068.346-.102.55-.102.202 0 .383.034.545.102a1.19 1.19 0 0 1 .677.729c.062.172.093.362.093.57 0 .209-.031.399-.093.57-.06.173-.148.32-.26.443a1.13 1.13 0 0 1-.412.284c-.162.067-.345.1-.55.1-.204 0-.388-.033-.552-.1a1.152 1.152 0 0 1-.417-.284 1.265 1.265 0 0 1-.264-.442 1.69 1.69 0 0 1-.091-.57m3.743-1.141a8 8 0 0 1 .102.184h.01a.892.892 0 0 1 .346-.328c.135-.068.29-.102.468-.102.194 0 .353.028.475.084a.65.65 0 0 1 .285.24.987.987 0 0 1 .135.382c.024.15.036.319.036.506v1.484h-.67v-1.56c0-.403-.154-.604-.46-.604a.709.709 0 0 0-.251.04.394.394 0 0 0-.18.14.71.71 0 0 0-.11.257 1.773 1.773 0 0 0-.038.402v1.325h-.675V3.702h.425l.102.185m5.025 1.258a1.797 1.797 0 0 0-.335.067.618.618 0 0 0-.24.13c-.062.056-.092.14-.092.248 0 .12.04.205.123.256a.558.558 0 0 0 .301.077.782.782 0 0 0 .304-.051.47.47 0 0 0 .287-.343c.019-.079.028-.162.028-.25v-.185c-.126.02-.252.037-.376.051m.432.88a.844.844 0 0 1-.388.297 1.48 1.48 0 0 1-.854.025.843.843 0 0 1-.292-.15.719.719 0 0 1-.266-.581c0-.17.04-.312.118-.423a.801.801 0 0 1 .343-.265 2.14 2.14 0 0 1 .552-.149c.218-.032.465-.059.741-.08-.003-.214-.038-.368-.104-.46-.067-.092-.187-.138-.361-.138a.563.563 0 0 0-.35.1c-.087.067-.138.175-.151.325h-.68a.898.898 0 0 1 .11-.422.809.809 0 0 1 .26-.276c.108-.07.232-.12.374-.151.141-.03.288-.046.442-.046.221 0 .403.025.545.076a.731.731 0 0 1 .335.233.93.93 0 0 1 .171.394c.032.159.049.344.049.555v1.448h-.491zm1.801-2.138l.102.184h.01a.89.89 0 0 1 .345-.328c.135-.068.29-.102.468-.102.195 0 .353.028.476.084a.647.647 0 0 1 .284.24.983.983 0 0 1 .135.382c.024.15.036.319.036.506v1.484h-.67v-1.56c0-.403-.153-.604-.46-.604a.704.704 0 0 0-.25.04.394.394 0 0 0-.18.14.71.71 0 0 0-.11.257 1.79 1.79 0 0 0-.038.402v1.325h-.675V3.702h.425c.033.062.067.123.102.185m3.636.271a.537.537 0 0 0-.273.066.572.572 0 0 0-.193.184.847.847 0 0 0-.112.277 1.55 1.55 0 0 0-.036.342c0 .116.014.225.041.328a.91.91 0 0 0 .118.268.572.572 0 0 0 .192.182.513.513 0 0 0 .263.067.55.55 0 0 0 .276-.067.553.553 0 0 0 .195-.184.846.846 0 0 0 .112-.274 1.508 1.508 0 0 0-.002-.67.853.853 0 0 0-.115-.271.537.537 0 0 0-.466-.248m.778 2.179a4.585 4.585 0 0 1-.077-.205 5.081 5.081 0 0 0-.077-.204h-.005a.879.879 0 0 1-.34.355.947.947 0 0 1-.468.116.952.952 0 0 1-.81-.397 1.304 1.304 0 0 1-.203-.44 2.165 2.165 0 0 1-.066-.55c0-.194.023-.375.069-.542.046-.167.113-.312.202-.435a.945.945 0 0 1 .332-.29.985.985 0 0 1 .466-.104c.156 0 .301.032.434.097a.84.84 0 0 1 .338.312c0-.225 0-.45.002-.675.002-.225.003-.45.003-.676h.726v3.638zm3.871-1.975c.235 0 .419-.037.55-.112.131-.075.197-.215.197-.42 0-.187-.06-.321-.177-.401-.117-.08-.296-.12-.534-.12h-.532v1.053zM54.747 2.7h1.37c.188 0 .364.017.528.053.163.036.306.094.43.174.122.08.219.184.29.312a.945.945 0 0 1 .108.469.965.965 0 0 1-.174.588c-.116.157-.293.264-.532.322.219.04.375.142.468.304.094.163.155.378.182.648a17.856 17.856 0 0 0 .067.379c.013.071.028.14.045.21.018.067.036.127.057.178h-.768a1.578 1.578 0 0 1-.03-.153 19.5 19.5 0 0 1-.087-.614 2.132 2.132 0 0 0-.072-.32.464.464 0 0 0-.12-.2.45.45 0 0 0-.207-.104 1.491 1.491 0 0 0-.338-.031h-.47v1.422h-.747zm4.429 1.447c-.184 0-.324.06-.42.18a.802.802 0 0 0-.168.43h1.166c-.048-.407-.24-.61-.578-.61m-.593 1.06c.007.224.063.4.169.526.106.126.259.19.46.19a.55.55 0 0 0 .343-.105.528.528 0 0 0 .189-.284h.65c-.072.3-.212.524-.42.673-.208.148-.469.222-.782.222a1.34 1.34 0 0 1-.535-.102 1.148 1.148 0 0 1-.404-.287 1.266 1.266 0 0 1-.256-.442 1.732 1.732 0 0 1-.09-.57c0-.205.031-.393.093-.563a1.33 1.33 0 0 1 .26-.443 1.16 1.16 0 0 1 .405-.29c.157-.067.329-.101.516-.101.202 0 .377.035.527.105.15.07.276.167.379.291.102.125.18.272.235.443.054.17.085.356.092.557.007.028.01.056.01.085v.094zm2.874.266c.007.163.063.28.167.353a.695.695 0 0 0 .4.107.695.695 0 0 0 .344-.08.26.26 0 0 0 .143-.242c0-.11-.06-.19-.181-.244a3.19 3.19 0 0 0-.576-.16 2.675 2.675 0 0 1-.378-.11 1.127 1.127 0 0 1-.29-.157.638.638 0 0 1-.184-.217.64.64 0 0 1-.063-.294.677.677 0 0 1 .334-.601 1.22 1.22 0 0 1 .361-.151 2.028 2.028 0 0 1 .88-.005c.136.03.256.08.36.15a.79.79 0 0 1 .25.27c.064.108.1.243.11.403h-.669c-.01-.14-.061-.24-.154-.3a.628.628 0 0 0-.347-.088.82.82 0 0 0-.159.015.5.5 0 0 0-.135.046.262.262 0 0 0-.095.082.208.208 0 0 0-.036.123.21.21 0 0 0 .049.143.39.39 0 0 0 .143.097c.063.027.141.053.235.077l.33.081c.147.035.277.073.391.116.115.042.212.094.292.153a.59.59 0 0 1 .243.519.739.739 0 0 1-.353.648 1.21 1.21 0 0 1-.381.156 2.046 2.046 0 0 1-.468.05 2.05 2.05 0 0 1-.496-.055 1.158 1.158 0 0 1-.389-.172.807.807 0 0 1-.256-.291.998.998 0 0 1-.102-.422zm3.356-1.326c-.185 0-.325.06-.42.18a.802.802 0 0 0-.169.43h1.166c-.047-.407-.24-.61-.577-.61m-.594 1.06c.007.224.063.4.169.526.106.126.259.19.46.19a.55.55 0 0 0 .343-.105.528.528 0 0 0 .19-.284h.649c-.072.3-.212.524-.42.673-.208.148-.469.222-.782.222a1.34 1.34 0 0 1-.535-.102 1.148 1.148 0 0 1-.404-.287 1.266 1.266 0 0 1-.255-.442 1.732 1.732 0 0 1-.09-.57c0-.205.03-.393.092-.563.062-.17.149-.318.261-.443a1.16 1.16 0 0 1 .404-.29c.157-.067.329-.101.517-.101.2 0 .376.035.526.105.15.07.277.167.379.291.102.125.18.272.235.443.055.17.085.356.092.557.007.028.01.056.01.085v.094zm3.562-.062a1.797 1.797 0 0 0-.335.067.618.618 0 0 0-.24.13c-.062.056-.092.14-.092.248 0 .12.04.205.123.256a.557.557 0 0 0 .301.077.782.782 0 0 0 .304-.051.47.47 0 0 0 .287-.343c.019-.079.028-.162.028-.25v-.185a8.26 8.26 0 0 1-.376.051m.432.88a.844.844 0 0 1-.388.297 1.48 1.48 0 0 1-.854.025.842.842 0 0 1-.292-.15.713.713 0 0 1-.266-.581c0-.17.04-.312.118-.423a.807.807 0 0 1 .343-.265c.15-.067.334-.116.552-.149.218-.032.465-.059.741-.08-.003-.214-.038-.368-.104-.46-.067-.092-.187-.138-.361-.138a.562.562 0 0 0-.35.1c-.087.067-.137.175-.151.325h-.68a.812.812 0 0 1 .37-.698c.108-.07.232-.12.374-.151.141-.03.289-.046.442-.046.222 0 .403.025.545.076a.73.73 0 0 1 .335.233.926.926 0 0 1 .171.394c.032.159.049.344.049.555v1.448h-.491zm1.264-2.323h.43l.204.466a1.07 1.07 0 0 1 .348-.394.891.891 0 0 1 .578-.128l.102.015v.625a.867.867 0 0 0-.23-.031.845.845 0 0 0-.368.071.548.548 0 0 0-.233.208.951.951 0 0 0-.12.335 2.592 2.592 0 0 0-.036.455v1.013h-.675zm4.393 1.643c-.044.34-.17.606-.376.795-.206.19-.476.284-.81.284-.192 0-.364-.033-.517-.1a1.109 1.109 0 0 1-.394-.284 1.27 1.27 0 0 1-.25-.437 1.71 1.71 0 0 1-.087-.56c0-.205.029-.394.087-.568a1.31 1.31 0 0 1 .248-.45c.107-.127.238-.225.393-.295a1.28 1.28 0 0 1 .53-.104c.153 0 .298.02.435.06.136.042.255.105.358.19a1 1 0 0 1 .25.318c.065.126.104.274.118.445h-.645a.583.583 0 0 0-.16-.356.47.47 0 0 0-.34-.125.508.508 0 0 0-.272.069.539.539 0 0 0-.184.19.939.939 0 0 0-.107.28 1.587 1.587 0 0 0 0 .673.88.88 0 0 0 .107.269.58.58 0 0 0 .179.184.464.464 0 0 0 .256.069.47.47 0 0 0 .36-.146.746.746 0 0 0 .177-.401zm1.156-1.285h.005a.761.761 0 0 1 .333-.317c.14-.068.29-.102.45-.102.204 0 .372.038.504.112.13.076.23.186.299.333.044.092.076.2.094.322.019.123.028.266.028.43v1.5h-.675V4.893c0-.249-.035-.428-.107-.54-.072-.11-.191-.166-.358-.166-.188 0-.33.064-.427.19-.098.126-.146.327-.146.603v1.356h-.675V2.7h.675zM18.645 8.327h.736v3.014h1.683v.624h-2.42zm2.869 1.003h.68v2.635h-.68zm.68-.379h-.68v-.624h.68zm1.969.834a.514.514 0 0 0-.455.248.853.853 0 0 0-.115.272 1.405 1.405 0 0 0-.039.335c0 .123.014.236.041.34a.886.886 0 0 0 .118.271.527.527 0 0 0 .46.248.51.51 0 0 0 .453-.248.884.884 0 0 0 .112-.274 1.422 1.422 0 0 0-.002-.672.892.892 0 0 0-.118-.272.581.581 0 0 0-.192-.181.517.517 0 0 0-.263-.067m-1.248 2.18V8.327h.68l.005 1.346a.81.81 0 0 1 .332-.312c.134-.065.284-.097.45-.097a1.008 1.008 0 0 1 .794.373c.098.12.175.265.23.437a1.9 1.9 0 0 1 .082.576c0 .215-.028.408-.082.578a1.32 1.32 0 0 1-.228.435.984.984 0 0 1-.795.368c-.17 0-.333-.039-.486-.117a.691.691 0 0 1-.332-.369l-.164.42zM26.03 9.33h.43l.204.466a1.07 1.07 0 0 1 .348-.394.891.891 0 0 1 .578-.128c.03.003.064.008.102.015v.624a.867.867 0 0 0-.23-.03.843.843 0 0 0-.368.071.548.548 0 0 0-.233.207.941.941 0 0 0-.12.335 2.591 2.591 0 0 0-.036.456v1.013h-.675zm3.255 1.443a1.789 1.789 0 0 0-.335.066.618.618 0 0 0-.24.13c-.062.057-.093.14-.093.249 0 .12.041.205.124.256a.556.556 0 0 0 .301.077.783.783 0 0 0 .304-.052.47.47 0 0 0 .287-.342c.019-.079.028-.162.028-.251v-.184c-.126.02-.252.037-.376.05m.432.88a.842.842 0 0 1-.389.298 1.479 1.479 0 0 1-.853.025.843.843 0 0 1-.292-.15.716.716 0 0 1-.266-.581c0-.17.039-.312.118-.423.078-.11.192-.2.342-.266.15-.066.334-.115.552-.148.219-.032.466-.059.742-.08-.003-.214-.038-.368-.105-.46-.066-.092-.186-.138-.36-.138a.563.563 0 0 0-.35.1c-.087.066-.138.175-.152.325h-.68a.895.895 0 0 1 .11-.422.811.811 0 0 1 .261-.277c.108-.07.232-.12.374-.15.14-.031.288-.047.442-.047.221 0 .403.026.545.077a.731.731 0 0 1 .335.233.93.93 0 0 1 .17.394 2.8 2.8 0 0 1 .05.555v1.448h-.491zM30.98 9.33h.43l.205.466a1.07 1.07 0 0 1 .347-.394.892.892 0 0 1 .578-.128c.031.003.065.008.103.015v.624a.865.865 0 0 0-.23-.03.845.845 0 0 0-.369.071.548.548 0 0 0-.232.207.946.946 0 0 0-.12.335 2.617 2.617 0 0 0-.036.456v1.013h-.676zm3.956 1.46c-.162.49-.341.974-.54 1.451-.105.242-.231.418-.377.527-.147.11-.342.164-.584.164-.064 0-.125-.004-.181-.01a3.51 3.51 0 0 1-.197-.031v-.532l.125.02c.04.007.08.01.12.01.133 0 .24-.043.32-.13a.552.552 0 0 0 .146-.289 2.462 2.462 0 0 0-.087-.276c-.02-.055-.055-.144-.102-.266a43.44 43.44 0 0 1-.161-.42l-.19-.496c-.067-.174-.13-.34-.192-.496a32.481 32.481 0 0 1-.16-.42l-.1-.266h.736l.317.993c.106.33.21.661.312.992h.005c.103-.33.204-.662.304-.992.101-.331.202-.662.305-.993h.7c-.183.484-.357.971-.519 1.46m2.816-.145c0 .259.053.47.159.632a.515.515 0 0 0 .46.243c.204 0 .361-.08.47-.24.11-.16.164-.369.164-.625s-.055-.465-.164-.63a.531.531 0 0 0-.47-.245.534.534 0 0 0-.458.243.858.858 0 0 0-.12.274 1.408 1.408 0 0 0-.041.348m-.695.01c0-.208.03-.398.091-.57.062-.173.15-.32.266-.443.117-.123.255-.218.417-.286.162-.069.346-.103.55-.103.202 0 .383.034.545.103a1.19 1.19 0 0 1 .677.729c.062.172.093.362.093.57 0 .208-.031.398-.093.57-.06.173-.148.32-.26.443a1.13 1.13 0 0 1-.412.284c-.162.066-.345.1-.55.1-.204 0-.388-.034-.552-.1a1.152 1.152 0 0 1-.417-.284 1.265 1.265 0 0 1-.264-.443 1.69 1.69 0 0 1-.091-.57m3.37-.818h-.43V9.33h.43c.003-.037.005-.075.005-.113 0-.037.001-.075.005-.112.014-.27.085-.472.215-.609.13-.136.339-.205.629-.205.116 0 .237.01.363.031v.517a.934.934 0 0 0-.225-.026c-.137 0-.223.04-.26.118-.038.079-.057.211-.057.399h.511v.507h-.511v2.128h-.675zm4.286.225c.252 0 .441-.045.567-.133.126-.09.19-.232.19-.43 0-.201-.064-.345-.19-.432-.126-.088-.313-.131-.562-.131h-.486v1.126zM43.5 8.327h1.381c.423 0 .75.102.98.305.23.203.345.488.345.857 0 .173-.026.332-.08.476a.938.938 0 0 1-.24.365c-.107.101-.242.18-.406.236a1.782 1.782 0 0 1-.578.084h-.655v1.315H43.5zm3.197 1.003h.68v2.635h-.68zm.68-.379h-.68v-.624h.68zm.711-.624h.68v3.638h-.68zm1.933 2.773c.007.164.063.282.167.353a.695.695 0 0 0 .4.108.695.695 0 0 0 .344-.08.26.26 0 0 0 .143-.243c0-.109-.06-.19-.181-.243a3.19 3.19 0 0 0-.576-.16 2.676 2.676 0 0 1-.378-.11 1.127 1.127 0 0 1-.29-.157.638.638 0 0 1-.184-.217.64.64 0 0 1-.063-.295.677.677 0 0 1 .334-.6 1.22 1.22 0 0 1 .361-.152 2.028 2.028 0 0 1 .88-.005c.136.03.256.081.36.151.104.07.188.16.25.269.064.109.1.244.11.404h-.67c-.01-.14-.06-.24-.153-.3a.628.628 0 0 0-.347-.089.82.82 0 0 0-.159.015.5.5 0 0 0-.135.047.262.262 0 0 0-.095.081.208.208 0 0 0-.036.123.21.21 0 0 0 .049.144.39.39 0 0 0 .143.097c.063.027.141.053.235.076.094.024.204.052.33.082.147.034.277.073.391.115.115.043.212.094.292.154a.59.59 0 0 1 .243.519.739.739 0 0 1-.353.648 1.21 1.21 0 0 1-.381.155 2.046 2.046 0 0 1-.468.052 2.05 2.05 0 0 1-.496-.057 1.158 1.158 0 0 1-.389-.171.807.807 0 0 1-.256-.292.998.998 0 0 1-.102-.422zm3.356-1.325c-.185 0-.325.06-.42.18a.802.802 0 0 0-.169.429h1.166c-.047-.406-.24-.609-.577-.609m-.594 1.06c.007.224.063.4.169.526.106.126.259.19.46.19a.55.55 0 0 0 .343-.105.528.528 0 0 0 .19-.284h.649c-.072.3-.212.524-.42.672-.208.149-.469.223-.782.223a1.34 1.34 0 0 1-.535-.102 1.148 1.148 0 0 1-.404-.287 1.266 1.266 0 0 1-.255-.442 1.732 1.732 0 0 1-.09-.57c0-.205.03-.393.092-.564a1.3 1.3 0 0 1 .261-.442 1.16 1.16 0 0 1 .404-.29c.157-.068.329-.102.517-.102.2 0 .376.035.526.105.15.07.277.167.379.292.102.124.18.272.235.443.055.17.085.356.092.557.007.027.01.055.01.085v.094zm2.926-1.321l.102.184h.01a.887.887 0 0 1 .345-.327c.135-.068.291-.102.469-.102.194 0 .352.028.475.084a.646.646 0 0 1 .284.24.983.983 0 0 1 .135.382c.024.15.036.319.036.506v1.484h-.67v-1.56c0-.403-.153-.604-.46-.604a.704.704 0 0 0-.25.04.392.392 0 0 0-.18.139.71.71 0 0 0-.11.258 1.774 1.774 0 0 0-.038.402v1.325h-.675V9.33h.425l.102.184m3.626.261c-.184 0-.324.06-.42.18a.802.802 0 0 0-.168.429h1.166c-.048-.406-.24-.609-.578-.609m-.594 1.06c.007.224.064.4.17.526.105.126.258.19.46.19a.55.55 0 0 0 .342-.105.528.528 0 0 0 .19-.284h.65c-.073.3-.212.524-.42.672-.208.149-.47.223-.783.223a1.34 1.34 0 0 1-.534-.102 1.148 1.148 0 0 1-.404-.287 1.266 1.266 0 0 1-.256-.442 1.732 1.732 0 0 1-.09-.57c0-.205.031-.393.093-.564.06-.17.148-.318.26-.442a1.16 1.16 0 0 1 .405-.29c.156-.068.328-.102.516-.102.201 0 .377.035.527.105.15.07.276.167.378.292.103.124.18.272.235.443.055.17.086.356.093.557.006.027.01.055.01.085v.094zM61.13 9.33h.43l.204.466a1.07 1.07 0 0 1 .348-.394.891.891 0 0 1 .578-.128c.03.003.065.008.102.015v.624a.867.867 0 0 0-.23-.03.845.845 0 0 0-.368.071.548.548 0 0 0-.233.207.951.951 0 0 0-.12.335 2.591 2.591 0 0 0-.036.456v1.013h-.675zm4.746.66c.235 0 .419-.038.55-.113.131-.075.197-.214.197-.42 0-.187-.059-.32-.177-.4-.117-.08-.296-.12-.534-.12h-.532V9.99zm-1.243-1.663h1.371c.188 0 .363.018.527.054.164.036.306.094.43.174a.88.88 0 0 1 .291.312.945.945 0 0 1 .107.468.965.965 0 0 1-.173.589c-.117.156-.294.264-.532.322.218.04.374.142.467.304.094.162.155.378.182.647a17.856 17.856 0 0 0 .067.379c.013.072.029.142.045.21.018.068.036.128.057.179h-.767a1.578 1.578 0 0 1-.031-.154 19.5 19.5 0 0 1-.087-.614 2.13 2.13 0 0 0-.072-.32.464.464 0 0 0-.12-.199.45.45 0 0 0-.207-.105 1.491 1.491 0 0 0-.338-.03h-.47v1.422h-.747zm4.429 1.448c-.184 0-.324.06-.419.18a.802.802 0 0 0-.169.429h1.166c-.047-.406-.24-.609-.578-.609m-.593 1.06c.007.224.063.4.169.526.106.126.259.19.46.19a.55.55 0 0 0 .343-.105.528.528 0 0 0 .19-.284h.649c-.072.3-.212.524-.42.672-.208.149-.469.223-.782.223a1.34 1.34 0 0 1-.535-.102 1.148 1.148 0 0 1-.404-.287 1.266 1.266 0 0 1-.255-.442 1.732 1.732 0 0 1-.09-.57c0-.205.03-.393.092-.564a1.3 1.3 0 0 1 .261-.442 1.16 1.16 0 0 1 .404-.29c.157-.068.329-.102.517-.102.2 0 .376.035.526.105.15.07.277.167.379.292.102.124.18.272.235.443.055.17.085.356.092.557a.36.36 0 0 1 .01.085v.094zm3.534-1.039a.528.528 0 0 0-.442.227.772.772 0 0 0-.113.249 1.391 1.391 0 0 0-.005.616.748.748 0 0 0 .108.256.514.514 0 0 0 .447.238c.099 0 .186-.02.261-.062a.54.54 0 0 0 .187-.169.804.804 0 0 0 .112-.253 1.307 1.307 0 0 0 .003-.62.8.8 0 0 0-.107-.252.52.52 0 0 0-.185-.17.55.55 0 0 0-.266-.06m-.511 2.353c.02.13.08.224.176.284.098.06.212.09.346.09.208 0 .36-.07.46-.21.099-.14.145-.338.138-.594l-.005-.235a.748.748 0 0 1-.325.325 1.02 1.02 0 0 1-.468.105.991.991 0 0 1-.816-.376 1.243 1.243 0 0 1-.215-.42 1.798 1.798 0 0 1-.074-.53c0-.18.025-.35.074-.51.05-.161.122-.301.217-.42a1.048 1.048 0 0 1 .84-.394.92.92 0 0 1 .46.112.771.771 0 0 1 .312.338l.174-.384h.47v2.338c0 .212-.022.4-.066.563a.99.99 0 0 1-.22.414.961.961 0 0 1-.4.256 1.822 1.822 0 0 1-.603.087c-.153 0-.297-.017-.432-.051a1.134 1.134 0 0 1-.358-.156.826.826 0 0 1-.25-.261.815.815 0 0 1-.11-.371zm2.393-2.819h.68v2.635h-.68zm.68-.379h-.68v-.624h.68zm1.228 1.694c0 .259.053.47.158.632.106.162.26.243.46.243.205 0 .362-.08.471-.24.11-.16.164-.369.164-.625s-.055-.465-.164-.63a.531.531 0 0 0-.47-.245.536.536 0 0 0-.458.243.858.858 0 0 0-.12.274 1.408 1.408 0 0 0-.041.348m-.696.01c0-.208.031-.398.092-.57a1.207 1.207 0 0 1 .683-.729 1.39 1.39 0 0 1 .55-.103c.201 0 .383.034.545.103a1.19 1.19 0 0 1 .677.729c.062.172.093.362.093.57 0 .208-.031.398-.093.57-.061.173-.148.32-.26.443a1.13 1.13 0 0 1-.412.284 1.44 1.44 0 0 1-.55.1c-.205 0-.388-.034-.552-.1a1.15 1.15 0 0 1-.417-.284 1.27 1.27 0 0 1-.264-.443 1.689 1.689 0 0 1-.092-.57m3.744-1.141l.103.184h.01a.88.88 0 0 1 .345-.327c.135-.068.29-.102.468-.102.195 0 .353.028.475.084a.646.646 0 0 1 .284.24.982.982 0 0 1 .136.382c.024.15.036.319.036.506v1.484h-.67v-1.56c0-.403-.153-.604-.46-.604a.704.704 0 0 0-.25.04.392.392 0 0 0-.18.139.71.71 0 0 0-.11.258 1.775 1.775 0 0 0-.038.402v1.325h-.675V9.33h.424l.102.184"/>
  <path d="M1.281 13.32h12.035V1.282H1.28zm13.315 1.28H0V0h14.596zm-13.315.638v3.018l.96-.721.962.721v-3.018z" fill="#f05a37"/>
</svg>
