<svg xmlns="http://www.w3.org/2000/svg" height="69" width="55.184"><g fill="#f05a37"><path d="M4.844 50.344h45.5v-45.5h-45.5v45.5zm50.34 4.84H0V0h55.184v55.184zM4.844 57.59V69l3.633-2.724L12.11 69V57.59H4.844z"/><path d="M11.801 20.541c.014.915.291 1.58.832 1.992.54.413 1.245.619 2.108.619.347 0 .68-.035.996-.107.315-.07.595-.183.84-.338a1.89 1.89 0 0 0 .59-.58c.149-.232.222-.51.222-.832 0-.322-.073-.59-.221-.802a1.937 1.937 0 0 0-.657-.561 5.105 5.105 0 0 0-1.094-.425c-.438-.122-.954-.261-1.546-.416a16.035 16.035 0 0 1-2.04-.629c-.575-.225-1.048-.492-1.422-.802a2.998 2.998 0 0 1-.84-1.082c-.187-.413-.28-.91-.28-1.49 0-.67.138-1.26.415-1.768.276-.51.65-.939 1.121-1.287a5.103 5.103 0 0 1 1.663-.792 7.411 7.411 0 0 1 2.02-.27c.774 0 1.487.086 2.138.26.65.174 1.21.445 1.682.812.469.367.844.832 1.121 1.393.278.56.423 1.227.435 2h-2.842c-.053-.812-.31-1.392-.774-1.74-.464-.348-1.082-.522-1.856-.522-.67 0-1.212.148-1.624.445-.412.297-.619.722-.619 1.276 0 .271.045.493.136.667.09.174.266.332.53.474.265.142.636.28 1.113.415.477.136 1.095.307 1.856.513.67.168 1.279.361 1.828.58a5.497 5.497 0 0 1 1.41.802c.394.317.696.7.91 1.15.213.452.319.994.319 1.625 0 .657-.139 1.247-.417 1.77a3.974 3.974 0 0 1-1.15 1.334c-.49.367-1.08.65-1.77.85-.688.2-1.452.3-2.29.3a8.1 8.1 0 0 1-2.292-.31 5.135 5.135 0 0 1-1.807-.917 4.244 4.244 0 0 1-1.18-1.51c-.283-.598-.424-1.298-.424-2.097h2.86zM21.005 11.298h3.055l3.17 10.712h.02l3.23-10.712h2.94l-4.564 13.748h-3.365l-4.486-13.748zM35.024 11.298h2.726v6.072l5.066-6.072h3.365l-5.298 5.995 5.665 7.753h-3.442l-4.273-6.264-1.083 1.295v4.97h-2.726V11.297zM14.587 37.19c.952 0 1.669-.168 2.146-.504.476-.335.714-.876.714-1.623 0-.76-.238-1.306-.714-1.635-.477-.329-1.187-.493-2.127-.493h-1.837v4.254h1.818zm-4.584-6.555h5.221c1.598 0 2.833.383 3.703 1.15.871.767 1.306 1.847 1.306 3.239 0 .657-.101 1.256-.3 1.798a3.546 3.546 0 0 1-.909 1.383c-.407.38-.919.676-1.538.89-.618.212-1.346.318-2.185.318h-2.475v4.97h-2.823V30.635zM22.242 30.634h2.727v6.072l5.066-6.072H33.4l-5.298 5.994 5.665 7.754h-3.442l-4.273-6.264-1.083 1.295v4.97h-2.727V30.633z"/></g></svg>