<svg xmlns="http://www.w3.org/2000/svg" width="324" height="69" viewBox="0 0 85.725 18.256">
  <path d="M19.178 5.145c.003.242.077.417.22.527.144.109.33.163.56.163.092 0 .18-.009.264-.028a.698.698 0 0 0 .222-.09.5.5 0 0 0 .157-.153.4.4 0 0 0 .059-.22.363.363 0 0 0-.06-.212.511.511 0 0 0-.173-.149 1.353 1.353 0 0 0-.29-.112 28.56 28.56 0 0 0-.41-.11 4.274 4.274 0 0 1-.542-.166 1.37 1.37 0 0 1-.377-.213.796.796 0 0 1-.223-.286.953.953 0 0 1-.074-.394.963.963 0 0 1 .408-.809 1.36 1.36 0 0 1 .44-.21c.17-.047.349-.07.537-.07.205 0 .394.022.567.068.172.046.32.118.446.215.124.097.223.22.297.369.074.148.112.324.115.529h-.753c-.014-.215-.083-.368-.206-.46-.123-.093-.286-.139-.492-.139a.722.722 0 0 0-.43.118.39.39 0 0 0-.165.338c0 .071.012.13.036.176a.326.326 0 0 0 .141.126c.07.037.169.074.295.11l.492.135c.178.044.34.096.485.154.145.058.27.128.374.212a.853.853 0 0 1 .242.304c.056.12.084.263.084.43 0 .174-.036.33-.11.468a1.058 1.058 0 0 1-.305.353c-.13.098-.287.173-.47.225-.183.053-.385.08-.607.08a2.17 2.17 0 0 1-.608-.082 1.361 1.361 0 0 1-.48-.243 1.121 1.121 0 0 1-.313-.4 1.283 1.283 0 0 1-.112-.554zm3.6-1.443h.528v.501h-.528V5.4c0 .093.005.166.015.22.01.055.027.098.052.128a.166.166 0 0 0 .097.062 1.026 1.026 0 0 0 .364-.005v.537a2.475 2.475 0 0 1-.42.03c-.13 0-.244-.011-.341-.035a.514.514 0 0 1-.395-.36 1.251 1.251 0 0 1-.05-.382V4.203h-.44v-.501h.44v-.435l.678-.297zm2.826 2.461a2.35 2.35 0 0 0-.103-.174.796.796 0 0 1-.34.312 1.092 1.092 0 0 1-.47.097c-.199 0-.352-.03-.462-.092a.722.722 0 0 1-.266-.26.975.975 0 0 1-.126-.374 3.594 3.594 0 0 1-.028-.476V3.702h.626v1.57c0 .202.038.352.115.45a.394.394 0 0 0 .33.15c.096 0 .18-.014.255-.042a.39.39 0 0 0 .182-.138.71.71 0 0 0 .11-.258c.026-.108.038-.24.038-.397V3.702h.682v2.635h-.446a4.19 4.19 0 0 1-.097-.174m2.39-2.006a.54.54 0 0 0-.275.067.57.57 0 0 0-.192.184.835.835 0 0 0-.113.276 1.55 1.55 0 0 0-.036.343c0 .116.014.225.041.327a.895.895 0 0 0 .118.269.575.575 0 0 0 .193.182.516.516 0 0 0 .264.066.553.553 0 0 0 .277-.066.557.557 0 0 0 .194-.185.845.845 0 0 0 .114-.273 1.52 1.52 0 0 0-.003-.67.851.851 0 0 0-.115-.272.539.539 0 0 0-.467-.248m.78 2.18a4.275 4.275 0 0 1-.077-.205 6.004 6.004 0 0 0-.078-.205h-.005a.88.88 0 0 1-.34.356.95.95 0 0 1-.47.115.954.954 0 0 1-.813-.397 1.302 1.302 0 0 1-.203-.44 2.16 2.16 0 0 1-.066-.55c0-.194.023-.374.069-.542.046-.167.113-.312.203-.435a.955.955 0 0 1 .333-.289.99.99 0 0 1 .467-.104c.157 0 .302.032.435.097a.84.84 0 0 1 .339.312c0-.226 0-.45.002-.676l.003-.675h.728v3.638zm1.236-2.635h.681v2.634h-.682zm.681-.379h-.682V2.7h.682zm1.436 0h-.677V2.7h.677zM30.98 6.741a.7.7 0 0 0 .163.02c.1 0 .176-.024.229-.071.053-.048.08-.14.08-.276V3.702h.676v2.65c0 .16-.012.3-.038.42a.7.7 0 0 1-.134.296.572.572 0 0 1-.258.177 1.421 1.421 0 0 1-.718.023zm2.399-2.855l.102.184h.01a.888.888 0 0 1 .347-.327c.135-.068.291-.103.469-.103.195 0 .354.029.477.085a.651.651 0 0 1 .285.24.985.985 0 0 1 .135.382c.024.15.036.318.036.506v1.484h-.672v-1.56c0-.403-.153-.605-.461-.605a.713.713 0 0 0-.252.041.395.395 0 0 0-.18.139.71.71 0 0 0-.11.258 1.768 1.768 0 0 0-.038.402v1.325h-.677V3.702h.426l.103.184m2.523-.184h.682v2.634h-.682zm1.036-.87l-.857.645-.307-.282.769-.757zm2.726 2.313a1.805 1.805 0 0 0-.336.066.61.61 0 0 0-.241.13c-.062.057-.093.14-.093.249 0 .12.041.204.123.255a.56.56 0 0 0 .303.077.788.788 0 0 0 .305-.05.473.473 0 0 0 .287-.344c.019-.078.028-.162.028-.25v-.185a7.212 7.212 0 0 1-.376.052m.433.88a.847.847 0 0 1-.39.296 1.488 1.488 0 0 1-.856.026.845.845 0 0 1-.293-.151.717.717 0 0 1-.266-.58c0-.171.039-.312.118-.423.078-.11.193-.2.343-.266a2.16 2.16 0 0 1 .554-.148c.22-.033.467-.059.744-.08-.004-.214-.039-.368-.105-.46-.067-.092-.188-.138-.362-.138a.566.566 0 0 0-.351.1c-.087.066-.138.175-.152.325H38.4a.9.9 0 0 1 .11-.422.81.81 0 0 1 .262-.277 1.1 1.1 0 0 1 .375-.15c.142-.031.29-.047.443-.047.222 0 .404.026.546.077a.73.73 0 0 1 .336.233c.082.104.14.235.172.394.033.158.049.343.049.555v1.448H40.2zm2.313-2.323h.728l.6 1.96.595-1.96h.702l-.902 2.635h-.82zm4.154.445c-.185 0-.325.06-.42.179a.798.798 0 0 0-.17.43h1.17c-.048-.406-.242-.61-.58-.61m.215-.787h-.523l-.656-.773h.502l.416.466.42-.466h.508zm-.81 1.847c.007.225.063.4.17.527.105.126.259.19.46.19a.553.553 0 0 0 .344-.106.528.528 0 0 0 .19-.283h.651c-.071.3-.212.524-.42.672-.209.149-.47.223-.785.223-.198 0-.377-.034-.536-.102a1.152 1.152 0 0 1-.405-.287 1.264 1.264 0 0 1-.256-.443 1.72 1.72 0 0 1-.09-.57c0-.205.03-.392.092-.563.062-.17.15-.318.262-.442.112-.125.248-.221.405-.29a1.29 1.29 0 0 1 .518-.102c.202 0 .378.035.528.105.15.07.277.167.38.292.102.124.18.272.236.442.054.17.085.357.092.558.007.027.01.055.01.084v.095zm3.451-1.049a.54.54 0 0 0-.274.067.573.573 0 0 0-.193.184.845.845 0 0 0-.112.276 1.55 1.55 0 0 0-.036.343c0 .116.013.225.04.327a.908.908 0 0 0 .119.269.573.573 0 0 0 .192.182.516.516 0 0 0 .264.066.552.552 0 0 0 .277-.066.554.554 0 0 0 .195-.185.844.844 0 0 0 .113-.273 1.502 1.502 0 0 0-.003-.67.851.851 0 0 0-.115-.272.54.54 0 0 0-.467-.248m.78 2.18a4.553 4.553 0 0 1-.077-.205 5.027 5.027 0 0 0-.077-.205h-.005a.88.88 0 0 1-.341.356.952.952 0 0 1-.47.115.954.954 0 0 1-.813-.397 1.302 1.302 0 0 1-.202-.44 2.159 2.159 0 0 1-.067-.55c0-.194.023-.374.07-.542.046-.167.113-.312.202-.435.09-.122.2-.219.334-.289a.99.99 0 0 1 .466-.104c.158 0 .303.032.436.097a.841.841 0 0 1 .339.312c0-.226 0-.45.002-.676L50 2.7h.728v3.638zm2.349-2.19c-.185 0-.325.06-.42.179a.8.8 0 0 0-.17.43h1.17c-.049-.406-.242-.61-.58-.61m-.595 1.06c.007.225.063.4.17.527.105.126.259.19.46.19a.553.553 0 0 0 .344-.106.528.528 0 0 0 .19-.283h.651c-.072.3-.212.524-.42.672-.209.149-.47.223-.785.223-.198 0-.377-.034-.536-.102a1.151 1.151 0 0 1-.405-.287 1.265 1.265 0 0 1-.256-.443 1.728 1.728 0 0 1-.09-.57c0-.205.03-.392.092-.563a1.32 1.32 0 0 1 .262-.442c.113-.125.248-.221.405-.29a1.29 1.29 0 0 1 .518-.102c.202 0 .377.035.528.105.15.07.277.167.38.292.102.124.18.272.235.442.055.17.086.357.093.558.006.027.01.055.01.084v.095zm4.713.138c-.044.341-.17.606-.377.796-.207.189-.478.284-.813.284a1.3 1.3 0 0 1-.518-.1 1.112 1.112 0 0 1-.395-.284 1.268 1.268 0 0 1-.25-.438 1.705 1.705 0 0 1-.088-.56c0-.204.029-.394.087-.568.058-.173.141-.324.249-.45.107-.126.239-.224.395-.294a1.28 1.28 0 0 1 .53-.105c.154 0 .3.02.436.062a.983.983 0 0 1 .61.506c.066.126.105.275.118.445h-.646a.582.582 0 0 0-.161-.356.472.472 0 0 0-.341-.125.51.51 0 0 0-.272.07.54.54 0 0 0-.185.189.937.937 0 0 0-.107.28 1.583 1.583 0 0 0 0 .674.88.88 0 0 0 .107.268.58.58 0 0 0 .18.184c.072.046.157.07.256.07.15 0 .271-.049.362-.146a.745.745 0 0 0 .177-.402zm.518-2.644h.677v2.08l.985-1.079h.83l-1.015 1.085 1.108 1.55h-.836l-.76-1.187-.312.327v.86h-.677zm4.682.055l-.856.645-.308-.281.77-.758zm-.561 2.39a1.806 1.806 0 0 0-.336.066.61.61 0 0 0-.241.13c-.062.057-.093.14-.093.249 0 .12.042.205.124.256a.56.56 0 0 0 .302.076.788.788 0 0 0 .305-.05.473.473 0 0 0 .288-.344c.018-.078.028-.162.028-.25v-.185a7.249 7.249 0 0 1-.377.052m.433.88a.843.843 0 0 1-.39.296 1.495 1.495 0 0 1-.856.026.845.845 0 0 1-.292-.151.72.72 0 0 1-.267-.58c0-.171.04-.312.118-.423.078-.11.193-.2.344-.266.15-.066.335-.116.553-.148.219-.033.467-.059.744-.08-.004-.214-.038-.368-.105-.46-.067-.092-.187-.138-.362-.138a.565.565 0 0 0-.351.1c-.087.066-.138.175-.151.325h-.682a.902.902 0 0 1 .11-.423.815.815 0 0 1 .261-.276 1.1 1.1 0 0 1 .375-.15c.141-.031.29-.047.443-.047.223 0 .405.026.547.077a.732.732 0 0 1 .335.233c.083.104.14.235.172.394.033.158.05.343.05.555v1.448h-.493zM64.314 2.7h.676v2.08l.985-1.079h.83l-1.014 1.085 1.107 1.55h-.836l-.759-1.187-.313.327v.86h-.676zm3.482 1.186l.102.184h.01a.884.884 0 0 1 .347-.327 1.03 1.03 0 0 1 .47-.103c.194 0 .353.029.476.085a.647.647 0 0 1 .285.24.98.98 0 0 1 .135.382c.024.15.036.318.036.506v1.484h-.672v-1.56c0-.403-.153-.605-.461-.605a.708.708 0 0 0-.251.041.393.393 0 0 0-.18.139.709.709 0 0 0-.11.258 1.77 1.77 0 0 0-.039.402v1.325h-.676V3.702h.425l.103.184m2.524-.184H71v2.634h-.682zm.68-.379h-.682V2.7H71zm1.366.737h.005a.762.762 0 0 1 .333-.317c.14-.069.29-.103.451-.103.205 0 .374.038.505.113a.726.726 0 0 1 .3.333c.045.092.077.2.095.322.019.123.028.266.028.43v1.499h-.677V4.894c0-.25-.035-.429-.107-.54-.072-.11-.192-.166-.36-.166-.187 0-.33.063-.428.19-.097.126-.146.327-.146.603v1.356h-.676V2.699h.676zm2.902.957c0 .259.053.47.159.632.106.162.26.243.462.243.205 0 .362-.08.471-.24.11-.161.164-.37.164-.625 0-.256-.054-.466-.164-.63a.533.533 0 0 0-.471-.245.539.539 0 0 0-.46.243.857.857 0 0 0-.12.274c-.027.106-.04.222-.04.348m-.698.01c0-.208.03-.398.092-.57.062-.173.15-.32.266-.443a1.22 1.22 0 0 1 .419-.287 1.41 1.41 0 0 1 .55-.102 1.4 1.4 0 0 1 .547.102 1.193 1.193 0 0 1 .68.73c.061.172.092.362.092.57 0 .208-.03.398-.093.57a1.16 1.16 0 0 1-.674.727 1.45 1.45 0 0 1-.551.1c-.205 0-.39-.034-.554-.1a1.154 1.154 0 0 1-.418-.284 1.269 1.269 0 0 1-.264-.443 1.685 1.685 0 0 1-.092-.57m2.897-1.325h.728l.6 1.96.595-1.96h.703l-.903 2.635h-.82zm3.554.184l.103.184h.01a.882.882 0 0 1 .346-.327c.135-.068.292-.103.47-.103.195 0 .353.029.476.085a.647.647 0 0 1 .285.24.98.98 0 0 1 .136.382c.024.15.036.318.036.506v1.484h-.672v-1.56c0-.403-.154-.605-.462-.605a.708.708 0 0 0-.25.041.393.393 0 0 0-.18.139.709.709 0 0 0-.11.258 1.77 1.77 0 0 0-.039.402v1.325h-.677V3.702h.426l.102.184m3.675 1.259a1.806 1.806 0 0 0-.336.066.62.62 0 0 0-.241.13c-.062.057-.092.14-.092.249 0 .12.04.204.123.255a.56.56 0 0 0 .302.077.786.786 0 0 0 .305-.05.472.472 0 0 0 .288-.344c.018-.078.028-.162.028-.25v-.185a7.4 7.4 0 0 1-.377.052m.433.88a.846.846 0 0 1-.39.296 1.488 1.488 0 0 1-.856.026.845.845 0 0 1-.292-.151.714.714 0 0 1-.267-.58c0-.171.04-.312.118-.423.079-.11.193-.2.344-.266.15-.066.335-.116.553-.148.22-.033.467-.059.744-.08-.004-.214-.038-.368-.105-.46-.067-.092-.187-.138-.362-.138a.565.565 0 0 0-.35.1c-.088.066-.139.175-.152.325h-.682a.813.813 0 0 1 .372-.698 1.11 1.11 0 0 1 .374-.152c.142-.03.29-.046.443-.046.223 0 .405.026.547.077a.732.732 0 0 1 .336.233.918.918 0 0 1 .171.394c.033.158.049.343.049.555v1.448h-.492zm-65.214 4.036c.253 0 .443-.044.57-.133.126-.088.19-.232.19-.43 0-.2-.064-.345-.19-.432-.127-.087-.315-.13-.564-.13h-.488v1.125zm-1.215-1.734h1.384c.425 0 .752.102.983.304.23.203.346.489.346.857 0 .174-.027.333-.08.476a.944.944 0 0 1-.24.366c-.108.1-.244.179-.409.235a1.79 1.79 0 0 1-.579.085h-.656v1.315h-.75zm3.185 0h.682v3.637h-.682zm1.256 3.126l1.43-1.601h-1.348V9.33h2.205v.501L24 11.438h1.518v.526h-2.375zm3.913-1.678c-.184 0-.325.06-.42.179a.798.798 0 0 0-.17.43h1.17c-.048-.406-.241-.61-.58-.61m-.595 1.06c.007.225.064.4.17.527.105.126.26.19.461.19a.553.553 0 0 0 .344-.106.528.528 0 0 0 .19-.284h.651c-.072.3-.212.525-.42.673-.21.148-.471.223-.785.223-.199 0-.377-.034-.536-.103a1.152 1.152 0 0 1-.406-.286 1.264 1.264 0 0 1-.256-.443 1.72 1.72 0 0 1-.09-.57c0-.205.031-.392.093-.563a1.3 1.3 0 0 1 .261-.442c.113-.125.248-.221.405-.29.158-.068.33-.102.518-.102.202 0 .378.035.528.105.15.07.278.167.38.292.103.124.181.272.236.442.055.17.085.357.092.558.007.027.01.055.01.084v.095zm3.806-1.847h-.523l-.657-.773h.503l.415.466.42-.466h.508zm-.872.527l.102.184h.01a.878.878 0 0 1 .347-.327c.135-.069.291-.103.47-.103.194 0 .353.028.476.085a.648.648 0 0 1 .284.24.985.985 0 0 1 .137.381c.023.15.035.32.035.507v1.484h-.672v-1.56c0-.403-.153-.604-.461-.604a.708.708 0 0 0-.251.04.397.397 0 0 0-.18.139.71.71 0 0 0-.11.258 1.756 1.756 0 0 0-.039.402v1.325h-.677V9.33h.426l.103.184m2.902 1.586c.007.164.063.281.167.353a.698.698 0 0 0 .403.108.698.698 0 0 0 .343-.08.26.26 0 0 0 .144-.243c0-.11-.061-.19-.182-.243a3.192 3.192 0 0 0-.577-.161 2.684 2.684 0 0 1-.38-.11 1.133 1.133 0 0 1-.29-.156.638.638 0 0 1-.184-.218.636.636 0 0 1-.064-.294c0-.133.03-.25.09-.35a.75.75 0 0 1 .246-.251c.104-.066.225-.117.361-.15a2.043 2.043 0 0 1 .882-.005c.137.03.258.08.362.15a.809.809 0 0 1 .362.673h-.672c-.01-.14-.062-.24-.154-.3a.632.632 0 0 0-.349-.089.828.828 0 0 0-.159.015.506.506 0 0 0-.136.046.267.267 0 0 0-.095.082.21.21 0 0 0-.036.123.21.21 0 0 0 .05.143.39.39 0 0 0 .143.098c.063.027.142.052.236.076l.33.082c.147.034.278.073.393.115.114.043.212.094.292.154a.587.587 0 0 1 .244.519.737.737 0 0 1-.354.647c-.11.07-.237.122-.382.156a2.06 2.06 0 0 1-.47.051 2.06 2.06 0 0 1-.497-.056 1.158 1.158 0 0 1-.39-.171.806.806 0 0 1-.256-.292.992.992 0 0 1-.103-.422zm2.242-2.773h.677v2.082l.984-1.08h.83l-1.014 1.085 1.107 1.55h-.836l-.759-1.186-.312.327v.86h-.677zm4.805.056l-.856.645-.308-.282.77-.757zm-.723 1.392c-.185 0-.325.06-.42.179a.799.799 0 0 0-.17.43h1.17c-.048-.406-.241-.61-.58-.61m-.595 1.06c.007.225.064.4.17.527.105.126.26.19.46.19a.552.552 0 0 0 .345-.106.528.528 0 0 0 .19-.284h.65c-.071.3-.212.525-.42.673-.209.149-.47.223-.784.223-.2 0-.378-.035-.536-.103a1.15 1.15 0 0 1-.406-.286 1.275 1.275 0 0 1-.256-.443 1.727 1.727 0 0 1-.09-.57c0-.205.031-.392.093-.563.06-.17.148-.318.261-.442.113-.125.248-.221.405-.29a1.29 1.29 0 0 1 .518-.102c.202 0 .378.035.528.105.15.07.277.167.38.292.102.124.181.272.236.442.054.17.085.357.092.558a.35.35 0 0 1 .01.084v.095zm2.959-1.146h.005a.764.764 0 0 1 .334-.317c.14-.069.29-.103.451-.103.205 0 .374.038.505.113a.726.726 0 0 1 .3.332c.045.093.076.2.095.323.019.123.028.266.028.43v1.499h-.677v-1.443c0-.25-.036-.429-.107-.54-.072-.11-.192-.166-.36-.166-.187 0-.33.063-.428.189-.097.126-.146.328-.146.604v1.356h-.677V8.327h.677zm2.903.957c0 .259.053.47.159.631.106.163.26.244.461.244.206 0 .363-.08.472-.241.11-.16.164-.368.164-.624s-.054-.466-.164-.63a.533.533 0 0 0-.472-.245.538.538 0 0 0-.458.243.851.851 0 0 0-.121.274 1.388 1.388 0 0 0-.041.348m-.698.01c0-.208.031-.398.093-.57.061-.173.15-.32.266-.443a1.22 1.22 0 0 1 .418-.287 1.41 1.41 0 0 1 .552-.102c.202 0 .384.034.546.102a1.193 1.193 0 0 1 .68.73c.06.172.092.362.092.57 0 .208-.031.398-.093.57-.061.172-.149.32-.261.443-.113.123-.25.217-.413.284a1.45 1.45 0 0 1-.551.1 1.47 1.47 0 0 1-.554-.1 1.154 1.154 0 0 1-.418-.284 1.265 1.265 0 0 1-.264-.443 1.685 1.685 0 0 1-.093-.57m4.595-2.328h.677v2.082l.985-1.08h.83l-1.015 1.085 1.108 1.55h-.836l-.759-1.186-.313.327v.86h-.677zm2.944 1.003h.431l.205.465c.096-.174.212-.305.349-.394a.896.896 0 0 1 .58-.127c.03.003.065.008.102.015v.624a.871.871 0 0 0-.23-.03.849.849 0 0 0-.37.07.55.55 0 0 0-.233.208.95.95 0 0 0-.12.335 2.585 2.585 0 0 0-.037.456v1.012h-.677zm3.264 1.443a1.806 1.806 0 0 0-.335.066.62.62 0 0 0-.241.13c-.062.057-.093.14-.093.249 0 .12.041.204.123.255a.56.56 0 0 0 .303.077.786.786 0 0 0 .305-.05.472.472 0 0 0 .288-.344c.018-.078.027-.162.027-.25v-.185c-.126.02-.252.038-.377.052m.434.88a.846.846 0 0 1-.39.296 1.488 1.488 0 0 1-.856.026.845.845 0 0 1-.293-.151.714.714 0 0 1-.266-.58c0-.171.039-.312.118-.423.078-.11.193-.2.343-.266a2.12 2.12 0 0 1 .554-.148c.219-.033.467-.06.744-.08-.004-.215-.039-.368-.105-.46-.067-.092-.188-.138-.362-.138a.565.565 0 0 0-.351.1c-.087.066-.138.174-.151.324h-.683a.813.813 0 0 1 .372-.698 1.1 1.1 0 0 1 .375-.15c.141-.031.29-.047.443-.047.222 0 .404.026.546.077a.732.732 0 0 1 .336.233c.082.104.14.235.172.394.032.158.049.343.049.555v1.447h-.493zm1.994-2.702h-.676v-.624h.677zm-1.148 3.418a.69.69 0 0 0 .164.02c.1 0 .175-.024.228-.071.054-.048.08-.14.08-.277V9.33h.677v2.65c0 .16-.013.3-.038.42a.702.702 0 0 1-.134.296.57.57 0 0 1-.259.177c-.11.039-.248.059-.415.059a1.49 1.49 0 0 1-.303-.036zm3-2.594c-.185 0-.325.06-.42.179a.8.8 0 0 0-.17.43h1.17c-.048-.406-.241-.61-.58-.61m-.595 1.06c.007.225.063.4.17.527.106.126.26.19.461.19a.553.553 0 0 0 .344-.106.528.528 0 0 0 .19-.284h.65c-.071.3-.211.525-.42.673-.208.148-.47.223-.784.223a1.34 1.34 0 0 1-.537-.103 1.151 1.151 0 0 1-.405-.286 1.265 1.265 0 0 1-.256-.443 1.728 1.728 0 0 1-.09-.57c0-.205.03-.392.093-.563a1.3 1.3 0 0 1 .261-.442c.113-.125.248-.221.405-.29a1.29 1.29 0 0 1 .518-.102c.202 0 .378.035.528.105.15.07.278.167.38.292.103.124.181.272.236.442.055.17.085.357.092.558.007.027.01.055.01.084v.095z"/>
  <path d="M1.285 13.32h12.067V1.28H1.285zm13.351 1.28H0V0h14.636zm-13.351.638v3.018l.963-.721.964.721v-3.018z" fill="#f05a37"/>
</svg>
